<?xml version="1.0" standalone="no"?>
<!DOCTYPE svg PUBLIC "-//W3C//DTD SVG 20010904//EN"
 "http://www.w3.org/TR/2001/REC-SVG-20010904/DTD/svg10.dtd">
<svg version="1.0" xmlns="http://www.w3.org/2000/svg"
 width="640.000000pt" height="640.000000pt" viewBox="0 0 640.000000 640.000000"
 preserveAspectRatio="xMidYMid meet">
<metadata>
Created by potrace 1.14, written by Peter Selinger 2001-2017
</metadata>
<g transform="translate(0.000000,640.000000) scale(0.100000,-0.100000)"
fill="#000000" stroke="none">
<path d="M0 3550 l0 -2850 50 0 c73 0 65 -32 -17 -74 l-33 -17 0 -120 c0 -117
1 -119 20 -109 11 6 20 8 20 4 0 -3 20 6 44 20 49 29 68 33 60 13 -4 -13 -29
-25 -112 -57 -32 -12 -33 -15 -30 -61 2 -27 5 -49 8 -49 3 0 25 12 50 26 49
28 121 57 127 50 2 -2 -39 -26 -91 -52 -53 -27 -96 -53 -96 -57 0 -5 46 16
103 45 113 60 176 86 159 65 -6 -6 -67 -41 -136 -77 -69 -35 -123 -66 -121
-68 2 -2 59 24 127 58 118 60 167 78 233 85 44 4 110 31 148 58 60 44 189 108
225 113 21 2 46 5 57 6 12 2 20 -3 20 -12 0 -8 5 -18 10 -22 6 -5 4 -8 -5 -9
-8 -1 -30 -3 -47 -5 -18 -2 -48 -6 -65 -8 -18 -2 -42 -4 -53 -5 -16 -1 -17 -3
-6 -10 18 -12 1 -36 -31 -44 -16 -5 -18 -3 -9 6 6 6 11 15 11 19 0 10 -156
-67 -165 -81 -6 -11 58 9 94 29 17 9 21 8 21 -5 0 -18 14 -19 42 -4 13 7 24 7
30 1 19 -19 103 1 187 44 46 24 85 44 87 44 1 0 1 -7 0 -15 -1 -8 -27 -31 -57
-50 -81 -52 -49 -42 42 12 44 27 77 53 75 59 -3 7 -10 55 -17 108 -9 62 -16
91 -22 81 -10 -19 -57 -20 -57 -1 0 23 -38 30 -65 12 -31 -20 -41 -20 -25 -1
10 12 10 15 -2 15 -8 0 -19 -5 -25 -11 -7 -7 -17 -8 -25 -3 -7 5 -40 10 -73
11 -80 3 -138 14 -147 27 -5 6 -6 22 -3 36 4 19 -1 32 -20 50 -24 23 -35 47
-15 35 6 -3 10 -2 10 3 0 14 187 32 280 27 124 -8 124 -8 138 -34 17 -29 4
-44 -38 -44 -16 0 -30 -4 -30 -9 0 -4 -8 -8 -17 -8 -10 -1 2 -11 27 -23 25
-12 46 -19 48 -14 7 15 21 6 31 -20 10 -25 10 -23 6 17 -34 350 -29 818 14
1295 6 61 13 155 16 210 4 55 8 116 10 135 5 46 15 239 20 365 8 191 -18 582
-64 990 -27 235 -64 487 -78 530 -20 65 -71 126 -122 150 -38 17 -44 17 -78 2
-21 -9 -56 -21 -78 -28 -22 -6 -53 -21 -69 -32 l-30 -21 29 -7 c19 -6 35 -3
48 6 15 11 25 11 41 3 25 -13 84 -30 108 -29 17 0 17 -1 0 -19 -31 -33 -69
-42 -115 -26 -28 9 -66 12 -113 9 -134 -10 -217 34 -264 140 -28 63 -30 181
-5 257 48 146 175 340 274 418 85 67 458 292 526 317 22 8 123 44 225 80 102
36 197 75 212 85 15 11 34 20 42 20 8 0 31 11 51 24 19 13 70 39 113 56 80 33
150 73 213 122 22 17 49 28 67 28 23 0 55 19 124 73 159 124 154 121 413 196
61 18 162 53 225 78 63 25 153 56 200 69 47 12 108 29 135 37 80 23 304 40
361 27 152 -34 436 -151 490 -201 22 -21 22 -50 1 -77 -8 -11 -12 -11 -18 0
-7 11 -9 11 -9 0 0 -7 -5 -10 -11 -7 -6 4 -8 14 -4 23 5 14 3 14 -13 -1 -10
-9 -23 -17 -29 -17 -6 0 -16 -7 -23 -15 -17 -20 -32 -19 -28 2 2 10 -4 19 -14
21 -11 2 -18 -3 -18 -12 0 -9 5 -16 10 -16 6 0 10 -7 10 -15 0 -8 -4 -15 -10
-15 -5 0 -10 6 -10 13 0 6 -6 1 -13 -12 -6 -14 -19 -26 -27 -28 -13 -4 -13 -3
0 6 11 8 12 11 2 11 -19 0 -39 -23 -34 -38 5 -15 -10 -16 -26 0 -6 6 -15 8
-19 3 -5 -4 -2 -10 5 -12 18 -7 15 -70 -4 -77 -27 -10 -44 -7 -44 10 0 11 -6
13 -19 9 -13 -4 -23 0 -31 12 -9 16 -10 15 -4 -6 4 -16 3 -21 -5 -16 -7 4 -18
1 -26 -5 -12 -10 -15 -9 -15 9 0 11 5 21 10 21 6 0 10 11 10 25 l0 25 -21 -21
c-15 -15 -24 -18 -32 -10 -18 18 -37 13 -47 -11 -7 -19 -9 -20 -9 -4 -1 13 -6
17 -21 13 -22 -6 -28 8 -7 16 6 2 9 8 5 12 -3 3 -21 -4 -38 -17 -31 -23 -31
-23 -8 -28 15 -4 19 -8 10 -14 -6 -4 -12 -4 -12 0 0 4 -8 -1 -19 -10 -18 -16
-19 -16 -24 11 -3 15 -1 30 3 33 5 3 5 12 0 20 -6 10 -10 11 -10 3 0 -7 -7
-10 -17 -7 -15 5 -15 4 -4 -4 12 -9 12 -13 2 -26 -18 -21 -32 -20 -25 2 5 13
4 14 -4 3 -5 -7 -14 -11 -20 -7 -6 4 -8 -2 -5 -14 3 -11 0 -20 -6 -20 -6 0
-11 6 -11 13 0 9 -2 9 -9 -1 -6 -10 -10 -9 -14 7 -3 12 0 21 6 21 6 0 7 3 4 6
-9 10 -38 -16 -31 -28 3 -5 -3 -12 -15 -15 -22 -6 -30 -25 -9 -21 7 2 14 -8
15 -22 2 -19 1 -21 -5 -7 -7 17 -9 16 -31 -7 -13 -13 -20 -29 -17 -35 4 -5 2
-12 -4 -16 -5 -3 -10 -2 -10 3 0 15 -34 10 -47 -7 -11 -14 -12 -14 -13 -1 0 9
5 21 12 28 6 6 9 15 5 18 -3 4 -13 0 -21 -8 -14 -15 -15 -56 -1 -93 5 -14 -1
-11 -19 10 l-26 30 4 -28 c5 -28 -9 -64 -29 -79 -6 -4 -2 -8 8 -8 11 0 21 9
24 20 3 11 9 20 13 20 11 0 0 -39 -14 -47 -6 -4 -20 -7 -30 -8 -11 0 -21 -5
-23 -12 -3 -7 4 -9 18 -6 18 5 21 3 16 -11 -4 -10 -7 -24 -7 -32 0 -20 -20
-17 -20 4 -1 10 -9 2 -20 -20 -11 -20 -29 -39 -40 -43 -11 -3 -20 -13 -20 -21
0 -20 -13 -17 -28 6 -11 19 -14 19 -28 5 -9 -8 -20 -13 -25 -10 -5 4 -9 -1 -9
-9 0 -9 -4 -16 -10 -16 -11 0 -13 11 -4 34 5 13 9 14 20 5 11 -9 14 -7 14 10
0 12 5 31 11 42 21 40 2 40 -25 0 -16 -23 -31 -40 -33 -38 -1 2 1 26 6 54 10
53 5 97 -11 87 -5 -3 -6 -15 -2 -26 4 -15 2 -19 -7 -16 -8 3 -15 14 -17 25 -2
12 -9 24 -17 27 -10 3 -11 -2 -6 -22 5 -15 5 -36 1 -47 -4 -11 -5 -25 -3 -31
2 -7 0 -15 -6 -19 -6 -3 -11 -15 -11 -26 0 -11 -4 -17 -10 -14 -15 9 -12 -4 4
-21 9 -9 17 -10 21 -4 10 16 25 12 19 -5 -4 -8 -18 -15 -33 -15 -15 0 -37 -7
-50 -17 -24 -16 -24 -16 -17 10 3 14 2 29 -4 32 -5 3 -7 0 -5 -8 3 -7 -3 -21
-13 -31 -18 -15 -21 -15 -35 -2 -13 14 -16 13 -22 -7 -7 -22 -7 -22 -15 3 l-8
25 -1 -27 c-1 -28 -21 -41 -21 -14 0 8 -7 16 -14 19 -10 4 -13 1 -10 -8 4 -8
0 -13 -10 -11 -19 3 -34 16 -18 16 6 0 9 7 5 15 -6 17 -18 11 -18 -8 0 -5 -6
-12 -12 -14 -7 -3 -13 0 -13 7 0 6 -4 9 -9 6 -5 -3 -12 1 -15 10 -3 9 -11 12
-18 8 -16 -10 -48 -13 -43 -4 2 4 -2 16 -10 26 -8 10 -15 14 -15 9 0 -6 5 -16
11 -22 8 -8 4 -17 -16 -35 -46 -38 -65 -61 -65 -76 0 -9 -7 -13 -20 -9 -17 4
-18 2 -9 -15 6 -12 8 -39 5 -62 -5 -31 -4 -37 5 -26 9 12 10 11 4 -5 -4 -11
-8 -26 -9 -33 -1 -7 -8 -18 -16 -25 -13 -12 -13 -8 6 38 3 8 1 15 -5 15 -6 0
-11 -5 -11 -11 0 -6 -6 -9 -13 -6 -9 3 -13 -5 -12 -27 0 -25 5 -32 23 -34 16
-2 29 4 39 18 10 15 21 19 35 14 11 -3 23 -2 27 3 6 10 99 63 110 63 3 0 -12
-12 -34 -27 -22 -14 -42 -29 -45 -33 -3 -3 -22 -16 -42 -29 -21 -12 -38 -30
-39 -39 0 -10 -3 -12 -6 -5 -6 17 -93 -17 -137 -54 -51 -43 -71 -58 -85 -61
-22 -4 -71 -45 -71 -58 0 -29 99 -253 133 -303 38 -54 49 -49 23 11 -17 38
-46 131 -42 135 1 1 26 -43 55 -98 29 -55 55 -98 58 -96 2 3 -2 29 -11 58 -17
64 -27 119 -21 119 6 0 65 -90 65 -101 0 -5 4 -9 9 -9 13 0 -42 155 -66 189
-20 27 -53 96 -53 110 0 7 59 -96 96 -169 25 -49 84 -111 84 -88 0 8 -9 39
-20 71 -24 69 -26 84 -5 67 8 -7 15 -18 15 -25 0 -30 44 -114 70 -133 l28 -21
-4 37 c-2 20 -7 51 -12 67 -4 17 -6 44 -4 60 3 25 8 17 29 -49 27 -86 42 -88
43 -6 l0 45 27 -47 c26 -48 43 -54 43 -17 0 11 5 17 10 14 6 -3 10 4 10 16 l0
22 25 -23 c21 -20 25 -21 25 -6 0 9 -6 29 -14 44 -7 15 -16 43 -20 62 -5 27 0
21 24 -30 17 -35 33 -75 36 -87 4 -13 11 -26 17 -30 6 -4 8 3 4 18 -19 68 -55
196 -61 214 -5 13 -2 12 8 -5 9 -14 20 -43 26 -65 14 -52 61 -155 72 -155 11
0 10 28 -1 68 -6 20 -6 32 0 32 5 0 9 -4 9 -10 0 -12 61 -82 67 -76 2 2 -3 21
-11 41 -9 21 -16 54 -15 74 l1 36 11 -45 c7 -25 17 -43 22 -40 16 8 6 70 -21
129 -40 88 -19 70 25 -21 22 -45 47 -92 56 -103 15 -19 16 -18 10 20 -18 109
-9 97 25 -32 15 -58 31 -55 25 5 l-5 47 24 -50 c21 -43 25 -46 25 -23 1 14 -8
55 -19 90 -21 68 -27 135 -10 108 5 -8 10 -28 10 -45 0 -16 9 -59 21 -95 32
-97 38 -110 49 -110 17 0 23 49 10 81 -17 39 -6 49 14 12 8 -16 22 -36 31 -43
10 -8 21 -25 27 -39 13 -35 27 -10 22 38 -2 20 -1 27 2 16 3 -11 10 -30 16
-42 10 -20 12 -20 27 -6 14 15 16 14 21 -8 4 -17 8 -20 14 -11 4 7 3 25 -2 40
-16 41 -23 92 -13 92 11 0 41 -74 41 -103 0 -12 4 -29 10 -37 7 -12 12 -12 29
4 11 10 24 15 30 12 5 -3 17 1 25 10 15 14 17 14 23 -2 4 -10 2 -19 -5 -22
-20 -6 -13 -26 13 -39 20 -9 25 -8 25 2 0 13 65 59 85 61 6 0 18 -4 28 -8 12
-6 19 -4 23 7 9 22 21 19 29 -7 4 -15 8 -18 12 -10 3 7 -3 25 -13 40 -15 23
-15 25 -1 13 9 -7 23 -11 31 -8 8 3 20 -1 27 -9 6 -8 14 -12 16 -10 8 8 52
-44 49 -57 -1 -7 -1 -9 1 -5 2 4 11 4 19 1 8 -3 14 -2 13 3 -5 30 3 44 23 41
23 -2 58 -30 58 -46 0 -6 4 -13 10 -16 6 -4 7 1 4 12 -5 17 -5 17 9 1 8 -10
22 -18 31 -18 9 0 16 -7 16 -16 0 -12 7 -15 27 -11 18 3 31 0 39 -11 10 -14
14 -14 28 -3 14 11 16 11 16 -3 0 -9 4 -16 8 -16 5 0 14 -10 19 -22 6 -13 36
-57 67 -98 37 -50 114 -191 228 -420 95 -190 198 -388 228 -440 87 -147 209
-339 254 -400 54 -72 368 -451 390 -469 9 -7 47 -64 85 -125 80 -127 124 -176
161 -174 42 3 160 87 264 190 54 54 101 98 102 98 2 0 4 -10 4 -22 -1 -25 -41
-110 -87 -185 -17 -26 -42 -69 -57 -95 -15 -27 -29 -48 -32 -48 -6 0 21 53 64
123 19 31 33 60 30 63 -9 8 -69 -47 -79 -73 -5 -12 -16 -23 -24 -23 -10 0 -13
5 -9 13 5 6 -7 0 -25 -15 -18 -16 -39 -28 -46 -28 -8 0 -18 -6 -22 -12 -4 -7
-21 -21 -38 -30 -17 -9 -31 -27 -33 -40 -4 -27 -30 -58 -48 -58 -7 0 -20 10
-28 21 -14 21 -16 21 -39 6 -14 -9 -39 -45 -56 -81 -18 -35 -38 -70 -46 -76
-24 -20 -18 -44 15 -63 25 -15 29 -22 24 -45 -4 -15 -13 -31 -21 -35 -7 -4
-13 -17 -13 -27 0 -21 -34 -28 -45 -10 -9 15 -82 -48 -94 -81 -11 -32 -9 -34
20 -19 22 13 23 10 6 -22 -14 -27 -47 -64 -47 -52 0 3 -7 0 -16 -7 -24 -20
-14 -120 19 -185 33 -65 138 -197 148 -187 4 4 13 51 19 103 7 58 25 134 47
195 19 55 41 123 48 150 20 76 43 142 44 126 2 -26 -31 -156 -50 -196 -29 -62
-68 -227 -79 -343 -6 -58 -13 -109 -16 -113 -2 -4 0 -10 6 -14 5 -3 10 0 10 8
0 21 25 38 44 31 10 -4 16 -18 16 -35 0 -16 5 -29 10 -29 6 0 10 -10 10 -23 0
-13 10 -33 23 -45 28 -26 37 -28 37 -6 0 14 3 14 15 4 9 -7 12 -16 7 -19 -4
-3 -19 -22 -32 -41 l-25 -35 32 23 c32 23 53 28 53 13 0 -5 -7 -14 -15 -21 -8
-7 -15 -23 -15 -36 0 -29 -20 -76 -37 -87 -7 -4 -17 -17 -23 -27 -9 -17 -7
-20 13 -20 20 0 28 10 45 50 12 28 27 50 34 50 7 0 31 28 52 61 33 51 38 64
28 80 -12 19 0 35 18 24 6 -3 10 1 10 9 0 21 -13 20 -34 -3 -11 -12 -15 -27
-11 -43 6 -24 -18 -59 -28 -41 -14 26 -16 63 -3 70 8 4 40 32 70 61 31 28 61
52 67 52 18 0 59 52 59 75 0 12 -9 30 -20 40 -11 10 -20 21 -20 25 0 4 23 29
50 56 28 27 53 57 56 66 3 10 10 18 15 18 19 0 8 -27 -25 -63 -40 -44 -37 -47
10 -11 21 16 34 35 34 49 0 12 8 33 19 46 10 13 23 35 30 49 10 21 9 22 -1 6
-7 -10 -23 -31 -36 -45 l-23 -26 6 25 c6 24 5 24 -10 -3 -19 -34 -50 -38 -39
-5 8 26 21 40 53 57 19 11 22 11 15 -1 -4 -7 2 -4 14 6 25 22 29 38 7 30 -17
-7 -21 11 -4 22 6 3 8 15 6 26 -3 11 -3 26 0 34 7 20 31 17 36 -3 3 -13 7 -10
17 15 6 17 16 32 21 32 6 0 5 -9 -1 -21 -7 -11 -8 -24 -4 -27 4 -4 9 -1 11 5
9 24 41 58 49 51 13 -14 -35 -152 -68 -192 -54 -67 -77 -139 -71 -218 5 -52 2
-72 -9 -86 -34 -39 -47 -130 -24 -164 16 -22 16 -22 16 11 0 49 6 35 13 -29 6
-50 5 -53 -8 -36 -18 24 -19 24 -34 -49 -7 -33 -16 -67 -19 -75 -3 -8 -6 -19
-6 -25 -1 -5 -12 -10 -26 -11 -14 0 -32 -3 -40 -6 -8 -4 -30 -11 -47 -17 -18
-5 -50 -23 -70 -38 l-37 -28 22 32 c13 18 36 40 52 50 33 19 36 30 16 58 -13
19 -15 18 -49 -5 -38 -26 -70 -67 -45 -57 11 4 13 -2 10 -25 -3 -19 -12 -32
-27 -38 -13 -5 -26 -14 -30 -19 -3 -6 -15 -11 -27 -11 -11 0 -44 -24 -74 -55
-30 -30 -57 -55 -60 -55 -3 0 -17 -11 -31 -24 -14 -14 -45 -29 -69 -35 -61
-16 -67 -15 -54 8 15 28 13 38 -9 44 -20 5 -59 -28 -79 -69 -6 -11 -27 -32
-46 -45 -37 -25 -47 -49 -21 -49 19 0 91 -36 124 -61 30 -24 41 -24 41 1 0 10
9 24 21 30 16 9 19 18 15 36 -6 23 -5 24 13 14 11 -6 25 -28 31 -50 9 -33 8
-45 -5 -68 -14 -24 -88 -83 -144 -117 -9 -5 -32 -22 -51 -36 -19 -15 -51 -35
-70 -44 -19 -10 -37 -21 -40 -26 -3 -4 -26 -13 -52 -20 -55 -15 -90 -2 -133
50 -24 28 -27 36 -17 52 15 24 15 29 -2 29 -21 0 -106 -40 -106 -50 0 -5 9
-12 20 -15 39 -12 83 -111 54 -122 -8 -3 -20 0 -28 6 -10 9 -19 2 -42 -30 -33
-49 -61 -61 -115 -53 -36 6 -39 5 -39 -16 0 -22 1 -22 18 -7 27 25 32 21 32
-21 0 -21 7 -47 15 -58 15 -18 16 -17 10 13 -5 24 -1 37 15 53 28 28 43 22 53
-23 10 -40 30 -52 26 -14 -2 12 0 28 4 35 12 19 45 14 52 -8 3 -11 10 -20 15
-20 5 0 12 9 15 20 9 28 32 25 39 -5 8 -33 22 -32 31 2 l7 28 18 -24 18 -24
11 21 c17 31 25 27 47 -20 l19 -43 5 40 c5 36 8 39 35 40 17 0 35 -6 41 -14 9
-12 15 -12 35 2 34 25 55 21 69 -12 6 -16 21 -37 31 -47 19 -17 20 -17 17 27
-3 38 0 44 17 46 14 2 29 -11 50 -45 26 -41 35 -47 68 -50 37 -3 38 -2 27 18
-14 26 -10 32 27 34 15 1 33 4 38 8 6 3 38 4 72 2 34 -2 65 1 68 6 3 6 16 5
33 -1 18 -7 28 -7 30 0 5 14 34 14 64 0 18 -8 31 -7 52 5 21 10 35 12 47 5 10
-5 30 -7 44 -3 13 3 39 1 56 -5 19 -6 37 -7 43 -2 6 5 65 7 131 4 124 -4 146
-4 193 -1 15 1 47 -1 72 -5 l45 -8 -50 30 c-28 17 -75 37 -106 44 -74 20 -226
32 -242 20 -7 -6 -65 -7 -142 -3 -71 4 -135 3 -140 -1 -11 -8 -190 17 -209 29
-6 3 0 9 14 12 21 5 25 12 28 50 2 25 8 50 14 57 11 14 44 13 66 0 10 -7 11 0
6 31 -4 25 -1 48 7 63 7 13 14 40 14 59 1 19 0 29 -2 22 -6 -17 -23 -5 -23 18
0 23 -29 35 -36 15 -9 -23 -24 -7 -24 25 0 53 16 77 72 104 37 18 46 25 31 26
-30 0 -29 21 2 50 l26 24 -26 14 c-19 10 -25 18 -19 30 4 9 7 28 8 42 1 25 1
25 -79 21 -77 -3 -100 6 -36 14 18 2 50 20 73 40 23 19 43 33 46 30 6 -6 -24
-35 -37 -35 -5 0 -12 -4 -15 -9 -4 -5 46 -7 118 -4 104 5 127 3 140 -10 8 -8
44 -18 78 -22 35 -4 88 -17 118 -28 52 -19 146 -24 250 -12 14 1 100 3 193 4
l167 1 0 2795 0 2795 -3200 0 -3200 0 0 -2850z m3410 2291 c0 -6 -4 -13 -10
-16 -5 -3 -10 1 -10 9 0 9 5 16 10 16 6 0 10 -4 10 -9z m-170 -35 c0 -2 -7 -6
-15 -10 -8 -3 -15 -1 -15 4 0 6 7 10 15 10 8 0 15 -2 15 -4z m-30 -36 c0 -5
-5 -10 -11 -10 -5 0 -7 5 -4 10 3 6 8 10 11 10 2 0 4 -4 4 -10z m-140 -75 c0
-8 -4 -15 -10 -15 -5 0 -7 7 -4 15 4 8 8 15 10 15 2 0 4 -7 4 -15z m-66 -26
c-9 -11 -19 -17 -21 -15 -8 7 21 45 30 39 4 -3 1 -14 -9 -24z m-383 -313 c5 3
9 1 9 -4 0 -5 17 -8 38 -8 20 1 39 -3 42 -9 7 -14 -93 -6 -102 8 -4 7 -7 17
-7 22 0 6 3 4 6 -3 2 -6 9 -10 14 -6z m-421 -40 c0 -3 -4 -8 -10 -11 -5 -3
-10 -1 -10 4 0 6 5 11 10 11 6 0 10 -2 10 -4z m327 -78 c-3 -8 -6 -5 -6 6 -1
11 2 17 5 13 3 -3 4 -12 1 -19z m-150 -39 c-37 -19 -57 -18 -57 2 0 6 9 7 20
4 11 -3 20 -3 20 2 0 4 12 9 28 10 25 1 25 0 -11 -18z m-140 -141 c-3 -8 -6
-5 -6 6 -1 11 2 17 5 13 3 -3 4 -12 1 -19z m-47 -102 c0 -6 -7 -1 -15 10 -8
10 -15 23 -15 28 0 6 7 1 15 -10 8 -10 15 -23 15 -28z m29 -71 c0 -5 -6 1 -14
15 -8 14 -14 30 -14 35 0 6 6 -1 14 -15 8 -14 14 -29 14 -35z m711 -11 c21
-49 26 -75 11 -58 -9 10 -42 104 -36 104 2 0 13 -21 25 -46z m-373 -61 c-3
-10 -5 -4 -5 12 0 17 2 24 5 18 2 -7 2 -21 0 -30z m463 6 c0 -6 -4 -7 -10 -4
-5 3 -10 11 -10 16 0 6 5 7 10 4 6 -3 10 -11 10 -16z m2101 -2562 c-10 -9 -11
-8 -5 6 3 10 9 15 12 12 3 -3 0 -11 -7 -18z m183 -109 c-29 -57 -101 -168
-110 -168 -3 0 3 12 14 28 10 15 40 66 67 114 52 95 73 114 29 26z m391 32
c-3 -5 -11 -10 -16 -10 -6 0 -7 5 -4 10 3 6 11 10 16 10 6 0 7 -4 4 -10z m-35
-157 c0 -27 -14 -43 -29 -34 -10 7 -11 13 -2 30 14 25 31 28 31 4z m90 -117
c0 -3 -4 -8 -10 -11 -5 -3 -10 -1 -10 4 0 6 5 11 10 11 6 0 10 -2 10 -4z
m-750 -283 c0 -1 -9 -7 -20 -13 -15 -8 -20 -8 -20 3 0 7 9 13 20 13 11 0 20
-1 20 -3z m495 -20 c-4 -10 -8 -23 -8 -30 0 -12 -27 -6 -27 7 0 20 13 40 27
40 11 0 13 -5 8 -17z m-35 -208 c0 -8 -4 -15 -9 -15 -5 0 -14 7 -21 15 -10 13
-9 15 9 15 12 0 21 -6 21 -15z m-202 -76 c27 -29 34 -69 12 -69 -10 0 -24 31
-21 46 0 6 -6 17 -14 24 -14 12 -21 30 -11 30 3 0 18 -14 34 -31z m192 -363
c0 -3 -4 -8 -10 -11 -5 -3 -10 -1 -10 4 0 6 5 11 10 11 6 0 10 -2 10 -4z
m-5122 -131 c30 -7 24 -26 -13 -44 -49 -24 -275 -13 -275 14 0 28 206 49 288
30z m5002 -365 c0 -5 -4 -10 -10 -10 -5 0 -10 5 -10 10 0 6 5 10 10 10 6 0 10
-4 10 -10z m0 -75 c0 -8 -7 -15 -15 -15 -16 0 -20 12 -8 23 11 12 23 8 23 -8z
m-590 -135 c0 -5 -2 -10 -4 -10 -3 0 -8 5 -11 10 -3 6 -1 10 4 10 6 0 11 -4
11 -10z"/>
<path d="M3750 6061 c0 -6 5 -13 10 -16 6 -3 10 1 10 9 0 9 -4 16 -10 16 -5 0
-10 -4 -10 -9z"/>
<path d="M3120 5925 c7 -8 17 -15 22 -15 6 0 5 7 -2 15 -7 8 -17 15 -22 15 -6
0 -5 -7 2 -15z"/>
<path d="M3120 5881 c0 -5 5 -13 10 -16 6 -3 10 -2 10 4 0 5 -4 13 -10 16 -5
3 -10 2 -10 -4z"/>
<path d="M3270 5880 c0 -5 5 -10 11 -10 5 0 7 5 4 10 -3 6 -8 10 -11 10 -2 0
-4 -4 -4 -10z"/>
<path d="M2900 5870 c0 -5 5 -10 10 -10 6 0 10 5 10 10 0 6 -4 10 -10 10 -5 0
-10 -4 -10 -10z"/>
<path d="M3025 5870 c3 -5 8 -10 11 -10 2 0 4 5 4 10 0 6 -5 10 -11 10 -5 0
-7 -4 -4 -10z"/>
<path d="M3058 5858 c-4 -9 -4 -19 -1 -22 12 -11 31 -6 37 10 5 14 4 15 -8 5
-11 -10 -15 -9 -18 6 -3 16 -4 16 -10 1z"/>
<path d="M2995 5830 c-3 -5 -1 -10 4 -10 6 0 11 5 11 10 0 6 -2 10 -4 10 -3 0
-8 -4 -11 -10z"/>
<path d="M3571 5831 c-10 -7 -10 -10 -1 -16 6 -4 16 -3 22 3 13 13 -4 23 -21
13z"/>
<path d="M2930 5821 c0 -5 7 -11 14 -14 10 -4 13 -1 9 9 -6 15 -23 19 -23 5z"/>
<path d="M2720 5780 c0 -5 5 -10 11 -10 5 0 7 5 4 10 -3 6 -8 10 -11 10 -2 0
-4 -4 -4 -10z"/>
<path d="M2885 5770 c-3 -5 -1 -10 4 -10 6 0 11 5 11 10 0 6 -2 10 -4 10 -3 0
-8 -4 -11 -10z"/>
<path d="M2995 5770 c-3 -5 1 -10 9 -10 9 0 16 5 16 10 0 6 -4 10 -9 10 -6 0
-13 -4 -16 -10z"/>
<path d="M2716 5741 c-8 -13 4 -41 17 -41 8 0 8 3 0 11 -6 6 -9 18 -6 25 6 16
-3 19 -11 5z"/>
<path d="M2869 5697 c22 -24 49 -29 36 -6 -4 5 -1 9 5 9 6 0 8 5 4 11 -4 8 -9
7 -15 -2 -7 -12 -12 -12 -31 0 -23 14 -23 13 1 -12z"/>
<path d="M2713 5662 c-7 -4 -9 -13 -4 -21 6 -9 10 -7 14 8 3 12 4 21 4 21 -1
0 -7 -4 -14 -8z"/>
<path d="M2855 5638 c11 -6 24 -17 28 -25 13 -21 27 -15 25 11 -2 17 -6 22
-13 16 -6 -5 -17 -5 -25 0 -8 6 -19 10 -25 10 -5 -1 -1 -6 10 -12z"/>
<path d="M2695 5611 c-3 -5 -1 -12 5 -16 5 -3 10 1 10 9 0 18 -6 21 -15 7z"/>
<path d="M2780 5575 c0 -8 4 -15 10 -15 5 0 7 7 4 15 -4 8 -8 15 -10 15 -2 0
-4 -7 -4 -15z"/>
<path d="M2600 5550 c0 -5 5 -10 10 -10 6 0 10 5 10 10 0 6 -4 10 -10 10 -5 0
-10 -4 -10 -10z"/>
<path d="M2850 5549 c0 -5 5 -7 10 -4 6 3 10 8 10 11 0 2 -4 4 -10 4 -5 0 -10
-5 -10 -11z"/>
<path d="M2190 5479 c0 -5 5 -7 10 -4 6 3 10 8 10 11 0 2 -4 4 -10 4 -5 0 -10
-5 -10 -11z"/>
<path d="M2266 5397 c3 -10 9 -15 12 -12 3 3 0 11 -7 18 -10 9 -11 8 -5 -6z"/>
<path d="M2390 5401 c0 -5 5 -13 10 -16 6 -3 10 -2 10 4 0 5 -4 13 -10 16 -5
3 -10 2 -10 -4z"/>
<path d="M2150 5350 c0 -5 5 -10 11 -10 5 0 7 5 4 10 -3 6 -8 10 -11 10 -2 0
-4 -4 -4 -10z"/>
<path d="M2086 5295 c-19 -19 -20 -31 -4 -41 7 -5 8 -3 4 5 -5 7 0 18 10 26
11 7 16 16 13 20 -4 3 -14 -1 -23 -10z"/>
<path d="M1950 5230 c-9 -6 -10 -10 -3 -10 6 0 15 5 18 10 8 12 4 12 -15 0z"/>
<path d="M1870 5210 c0 -5 5 -10 10 -10 6 0 10 5 10 10 0 6 -4 10 -10 10 -5 0
-10 -4 -10 -10z"/>
<path d="M2095 5190 c3 -5 8 -10 11 -10 2 0 4 5 4 10 0 6 -5 10 -11 10 -5 0
-7 -4 -4 -10z"/>
<path d="M2070 5181 c0 -6 4 -13 10 -16 6 -3 7 1 4 9 -7 18 -14 21 -14 7z"/>
<path d="M1876 5149 c-14 -24 -15 -34 -7 -42 9 -9 11 -8 6 4 -4 10 -1 20 5 24
18 11 22 0 9 -28 -8 -17 -17 -23 -27 -20 -11 5 -13 3 -7 -8 6 -9 0 -8 -19 5
-24 15 -28 16 -23 3 8 -22 -10 -32 -31 -15 -16 12 -16 11 -2 -6 26 -33 18
-148 -10 -131 -5 3 -7 12 -4 19 3 7 -2 19 -11 26 -15 12 -20 4 -16 -22 2 -11
-13 -10 -27 2 -6 6 -10 7 -7 4 2 -4 -3 -13 -11 -21 -12 -13 -11 -17 8 -34 15
-12 17 -17 7 -13 -10 3 -20 1 -23 -5 -4 -5 3 -12 14 -16 11 -3 20 -11 20 -17
0 -5 -7 -8 -15 -4 -8 3 -15 1 -15 -4 0 -15 16 -12 55 10 20 11 43 20 53 20 9
0 30 11 45 25 15 14 27 23 27 19 0 -4 9 2 20 14 12 12 29 22 40 22 25 0 36 20
19 32 -12 7 -11 8 1 6 20 -3 60 23 60 39 0 7 7 13 15 13 9 0 12 6 9 15 -4 10
0 15 12 15 16 1 14 3 -6 15 -23 12 -26 12 -32 -6 -11 -30 -21 -22 -14 11 5 28
4 30 -14 20 -12 -7 -17 -16 -13 -28 4 -14 2 -13 -10 3 -10 12 -16 15 -17 7 0
-9 -5 -10 -19 -3 -11 7 -17 19 -16 34 5 41 -10 49 -29 16z m64 -79 c0 -5 -2
-10 -4 -10 -3 0 -8 5 -11 10 -3 6 -1 10 4 10 6 0 11 -4 11 -10z m-105 -10 c3
-5 1 -10 -4 -10 -6 0 -11 5 -11 10 0 6 2 10 4 10 3 0 8 -4 11 -10z m-44 -153
c-10 -9 -11 -8 -5 6 3 10 9 15 12 12 3 -3 0 -11 -7 -18z m49 19 c0 -2 -8 -10
-17 -17 -16 -13 -17 -12 -4 4 13 16 21 21 21 13z"/>
<path d="M1950 5166 c0 -2 8 -10 18 -17 15 -13 16 -12 3 4 -13 16 -21 21 -21
13z"/>
<path d="M2005 5140 c3 -5 10 -10 16 -10 5 0 9 5 9 10 0 6 -7 10 -16 10 -8 0
-12 -4 -9 -10z"/>
<path d="M2040 5130 c0 -19 3 -21 12 -12 9 9 9 15 0 24 -9 9 -12 7 -12 -12z"/>
<path d="M1930 5130 c0 -5 7 -10 15 -10 8 0 15 5 15 10 0 6 -7 10 -15 10 -8 0
-15 -4 -15 -10z"/>
<path d="M1715 5120 c3 -5 8 -10 11 -10 2 0 4 5 4 10 0 6 -5 10 -11 10 -5 0
-7 -4 -4 -10z"/>
<path d="M1616 5085 c4 -8 11 -15 16 -15 6 0 5 6 -2 15 -7 8 -14 15 -16 15 -2
0 -1 -7 2 -15z"/>
<path d="M1745 5060 c3 -5 8 -10 11 -10 2 0 4 5 4 10 0 6 -5 10 -11 10 -5 0
-7 -4 -4 -10z"/>
<path d="M1650 5050 c0 -5 5 -10 10 -10 6 0 10 5 10 10 0 6 -4 10 -10 10 -5 0
-10 -4 -10 -10z"/>
<path d="M1549 4992 c-15 -18 -15 -21 2 -43 10 -13 19 -19 19 -13 0 5 -6 16
-12 22 -10 10 -10 15 1 21 7 5 12 14 10 20 -3 7 -10 4 -20 -7z"/>
<path d="M1674 4995 c8 -8 18 -15 22 -15 3 0 1 7 -6 15 -7 8 -17 15 -22 15 -5
0 -3 -7 6 -15z"/>
<path d="M1596 4923 c-6 -14 -5 -15 5 -6 7 7 10 15 7 18 -3 3 -9 -2 -12 -12z"/>
<path d="M1630 4900 c0 -5 5 -10 10 -10 6 0 10 5 10 10 0 6 -4 10 -10 10 -5 0
-10 -4 -10 -10z"/>
<path d="M1590 4870 c0 -5 5 -10 11 -10 5 0 7 5 4 10 -3 6 -8 10 -11 10 -2 0
-4 -4 -4 -10z"/>
<path d="M1800 4850 c-42 -33 -44 -35 -73 -48 -15 -6 -36 -12 -47 -12 -33 0
-32 -19 4 -78 20 -31 36 -62 36 -67 0 -5 -19 22 -41 61 -51 85 -45 78 -65 70
-15 -6 -15 -8 2 -28 19 -21 19 -21 -3 -7 -13 8 -23 17 -23 22 0 4 -9 3 -20 -3
l-21 -11 22 -32 21 -32 -26 29 c-24 28 -26 29 -53 16 -15 -8 -46 -27 -69 -42
-22 -15 -53 -30 -68 -34 -14 -3 -29 -10 -32 -15 -6 -10 105 -153 113 -146 7 7
-32 80 -64 118 -15 19 -20 28 -11 21 9 -7 38 -43 65 -79 26 -35 49 -60 51 -54
2 5 -1 19 -7 30 -8 14 -8 20 1 23 9 3 8 12 -5 31 -22 33 -43 37 -26 5 16 -31
5 -20 -27 27 -22 34 -23 37 -5 20 17 -14 24 -16 30 -7 5 8 21 -13 46 -58 38
-69 62 -91 52 -47 -10 44 -47 130 -63 148 -10 11 -15 22 -12 25 3 3 16 -12 29
-33 36 -60 111 -164 115 -160 12 12 -52 132 -99 184 -11 13 -18 25 -15 28 6 6
74 -87 117 -158 13 -21 25 -36 28 -34 9 10 -20 92 -45 126 -17 22 -20 30 -9
21 11 -7 31 -36 46 -62 15 -26 31 -45 35 -41 4 4 5 1 2 -7 -3 -8 6 -28 20 -45
l26 -30 -7 35 c-17 86 -17 86 9 41 14 -23 26 -47 26 -52 0 -5 5 -9 10 -9 13 0
13 0 -5 50 -18 50 -18 53 -5 45 15 -9 12 12 -5 45 -9 17 -13 30 -11 30 10 0
36 -59 40 -87 2 -16 11 -44 20 -63 l16 -35 -2 30 c-3 59 2 86 14 79 8 -5 9 4
5 32 -5 29 -4 35 4 21 6 -9 14 -15 18 -13 4 3 18 -17 31 -45 13 -27 30 -55 39
-62 12 -10 13 -8 7 18 -4 17 -12 53 -16 81 -8 50 -80 244 -90 244 -3 -1 -16
-10 -30 -20z m-11 -95 l23 -40 -26 30 c-14 17 -26 36 -26 44 0 17 1 17 29 -34z
m70 -80 c0 -14 -4 -10 -12 12 -7 17 -15 35 -19 39 -5 4 -8 14 -8 23 1 9 9 0
20 -19 11 -19 19 -44 19 -55z m-158 -52 c13 -16 12 -17 -3 -4 -10 7 -18 15
-18 17 0 8 8 3 21 -13z"/>
<path d="M1650 4850 c0 -5 5 -10 11 -10 5 0 7 5 4 10 -3 6 -8 10 -11 10 -2 0
-4 -4 -4 -10z"/>
<path d="M1160 4816 c0 -8 4 -17 9 -20 5 -4 7 3 4 14 -6 23 -13 26 -13 6z"/>
<path d="M1444 4784 c3 -9 6 -20 6 -26 0 -6 6 -5 15 2 12 10 13 16 4 26 -16
19 -33 18 -25 -2z"/>
<path d="M1381 4758 c-8 -13 -8 -18 0 -18 8 0 6 -7 -4 -18 -23 -25 -21 -41 3
-35 12 3 18 8 15 11 -3 3 7 18 22 34 14 15 23 31 20 35 -14 14 -45 9 -56 -9z"/>
<path d="M1320 4715 c0 -11 -5 -15 -14 -12 -10 4 -13 1 -9 -9 3 -7 1 -14 -4
-14 -5 0 -18 -7 -29 -16 -18 -14 -18 -15 6 -8 13 4 30 13 37 20 8 7 20 11 28
8 20 -8 20 20 0 36 -12 10 -15 9 -15 -5z"/>
<path d="M3411 4642 c-14 -27 -12 -35 8 -23 7 5 11 17 9 27 -4 17 -5 17 -17
-4z"/>
<path d="M1255 4600 c-33 -16 -68 -29 -78 -30 -10 0 -27 -5 -38 -11 -19 -10
-19 -12 15 -49 19 -21 42 -50 51 -64 24 -36 38 -33 30 6 -7 30 -6 31 9 15 24
-23 29 -21 24 8 -4 20 -3 23 8 14 8 -6 14 -8 14 -3 0 5 5 1 11 -8 17 -29 28
-21 19 13 -5 17 -13 36 -17 43 -12 19 24 -22 46 -52 l20 -27 1 25 c0 14 -11
45 -25 70 -27 49 -9 30 43 -45 18 -26 36 -45 39 -42 13 14 -85 169 -105 166
-4 0 -34 -14 -67 -29z"/>
<path d="M1560 4552 c6 -13 14 -21 18 -18 3 4 -2 14 -12 24 -18 16 -18 16 -6
-6z"/>
<path d="M3716 4545 c-3 -8 -1 -15 4 -15 13 0 22 18 11 24 -5 3 -11 -1 -15 -9z"/>
<path d="M1028 4544 c-6 -5 94 -104 106 -104 10 0 -13 41 -43 75 l-26 30 29
-25 c15 -14 41 -44 58 -67 16 -24 33 -43 38 -43 16 0 -10 57 -46 99 -30 34
-42 41 -73 41 -21 0 -40 -2 -43 -6z"/>
<path d="M780 4530 c0 -5 5 -10 11 -10 5 0 7 5 4 10 -3 6 -8 10 -11 10 -2 0
-4 -4 -4 -10z"/>
<path d="M1015 4500 c-4 -6 1 -7 11 -3 11 4 15 2 11 -4 -4 -5 5 -21 18 -33 14
-13 25 -18 25 -11 0 6 -6 14 -14 17 -8 3 -16 14 -19 25 -5 20 -22 25 -32 9z"/>
<path d="M965 4440 c3 -5 8 -10 11 -10 2 0 4 5 4 10 0 6 -5 10 -11 10 -5 0 -7
-4 -4 -10z"/>
<path d="M4903 2038 c-13 -17 -54 -120 -50 -125 9 -8 36 36 51 81 17 50 17 67
-1 44z"/>
<path d="M4710 1839 c-6 -11 -10 -30 -8 -42 2 -16 6 -11 15 21 12 46 10 53 -7
21z"/>
<path d="M5631 1764 c0 -11 3 -14 6 -6 3 7 2 16 -1 19 -3 4 -6 -2 -5 -13z"/>
<path d="M4717 1617 c13 -61 27 -132 30 -156 8 -69 50 -206 83 -269 29 -58 34
-55 30 16 -1 21 4 34 14 38 9 3 16 17 16 29 0 18 -7 25 -31 30 -27 6 -30 10
-24 34 4 20 0 32 -14 45 -11 10 -18 22 -15 27 3 5 -2 19 -10 32 -13 19 -14 29
-4 55 13 33 3 57 -12 32 -7 -11 -10 -8 -11 15 -1 17 -3 39 -4 50 -2 23 -51
121 -63 129 -5 3 2 -45 15 -107z"/>
<path d="M4811 1700 c-2 -32 28 -153 45 -178 10 -15 30 -40 45 -57 16 -16 34
-37 41 -46 7 -10 24 -20 37 -24 22 -7 19 -1 -21 46 -68 81 -120 168 -134 224
-7 28 -13 43 -13 35z"/>
<path d="M4646 1681 c-3 -5 4 -20 15 -35 11 -14 16 -26 10 -26 -6 0 -11 -4
-11 -10 0 -5 9 -10 21 -10 15 0 19 5 16 18 -3 9 -8 29 -11 45 -6 26 -29 37
-40 18z"/>
<path d="M4594 1624 c-5 -22 -8 -69 -9 -106 0 -58 -2 -64 -12 -45 -10 19 -12
11 -9 -50 2 -47 9 -81 20 -98 10 -15 15 -32 13 -39 -3 -6 2 -21 10 -31 11 -14
14 -15 10 -4 -3 9 -8 41 -12 71 -5 43 -3 61 9 81 10 14 15 35 12 48 -3 13 -8
64 -11 113 -3 49 -7 91 -9 94 -3 2 -8 -13 -12 -34z"/>
<path d="M4700 1532 c0 -12 -4 -22 -10 -22 -17 0 -11 -28 8 -42 27 -19 34 -59
15 -80 -13 -15 -14 -24 -5 -51 27 -80 40 -109 60 -131 11 -14 28 -39 37 -55 8
-17 19 -31 24 -31 4 0 13 -10 19 -22 6 -13 11 -17 11 -9 1 7 -12 37 -28 65
-50 86 -97 236 -106 335 -4 47 -25 82 -25 43z m50 -232 c0 -5 -5 -10 -11 -10
-5 0 -7 5 -4 10 3 6 8 10 11 10 2 0 4 -4 4 -10z"/>
<path d="M4908 1339 c-25 -14 -12 -42 13 -28 10 5 19 16 19 24 0 17 -8 18 -32
4z"/>
<path d="M4912 1119 c23 -71 27 -76 27 -38 1 24 -6 42 -19 54 -19 17 -19 17
-8 -16z"/>
<path d="M4551 1119 c-1 -14 6 -34 14 -45 14 -18 14 -17 6 11 -17 57 -19 60
-20 34z"/>
<path d="M4746 1063 c-6 -14 -5 -15 5 -6 7 7 10 15 7 18 -3 3 -9 -2 -12 -12z"/>
<path d="M5437 1045 c18 -8 38 -24 45 -35 13 -21 28 -27 28 -11 0 13 -50 47
-80 55 -18 4 -15 1 7 -9z"/>
<path d="M4530 991 c0 -6 9 -27 19 -47 l19 -35 16 32 c17 35 13 51 -12 47 -10
-1 -23 1 -29 5 -8 5 -13 4 -13 -2z"/>
<path d="M5050 955 c0 -8 4 -15 9 -15 5 0 14 7 21 15 10 13 9 15 -9 15 -12 0
-21 -6 -21 -15z"/>
<path d="M4424 941 c4 -5 0 -11 -6 -13 -8 -3 -4 -9 10 -17 12 -6 22 -18 22
-27 0 -8 7 -17 15 -20 8 -4 15 -14 15 -23 1 -9 23 -32 50 -51 28 -19 50 -40
50 -46 0 -25 31 -23 55 3 18 21 22 30 13 40 -6 8 -18 11 -25 8 -8 -3 -21 2
-29 10 -9 8 -12 15 -7 15 4 1 -9 10 -30 21 -37 19 -45 25 -97 69 l-25 21 35
-5 35 -6 -35 14 c-42 17 -53 19 -46 7z"/>
<path d="M4989 884 c-5 -15 -7 -35 -3 -46 6 -19 6 -19 21 2 12 16 13 24 4 29
-6 4 -9 15 -5 24 3 9 3 17 0 17 -4 0 -11 -12 -17 -26z"/>
<path d="M3846 805 c4 -9 19 -15 38 -15 17 0 42 -7 55 -16 13 -9 38 -18 56
-19 39 -2 95 -24 95 -36 0 -5 24 -20 54 -34 30 -14 56 -30 58 -36 2 -7 17 -13
32 -15 16 -2 36 -9 45 -17 9 -8 32 -22 51 -31 32 -16 31 -13 -20 34 -39 37
-45 45 -20 29 l35 -24 -25 32 c-14 18 -28 32 -32 32 -13 2 -88 55 -88 63 0 5
-4 7 -9 3 -5 -3 -12 -1 -16 5 -4 6 -11 8 -16 5 -5 -4 -9 -1 -9 4 0 6 -10 11
-23 11 -13 0 -45 7 -71 16 -26 9 -50 13 -53 10 -4 -3 1 -6 10 -6 9 0 18 -4 22
-9 6 -11 -54 -5 -95 9 -58 19 -80 21 -74 5z"/>
<path d="M5009 803 c-13 -16 -12 -17 4 -4 16 13 21 21 13 21 -2 0 -10 -8 -17
-17z"/>
<path d="M4655 800 c3 -5 8 -10 11 -10 2 0 4 5 4 10 0 6 -5 10 -11 10 -5 0 -7
-4 -4 -10z"/>
<path d="M4280 787 c0 -1 16 -17 35 -36 19 -18 33 -26 30 -18 -5 12 -65 63
-65 54z"/>
<path d="M4696 781 c-4 -7 -5 -15 -2 -18 9 -9 19 4 14 18 -4 11 -6 11 -12 0z"/>
<path d="M3783 738 c20 -18 37 -41 37 -51 0 -25 -30 -34 -45 -14 -16 23 -24
21 -22 -3 1 -18 8 -20 64 -20 35 0 63 4 63 8 0 16 -34 47 -85 81 l-50 32 38
-33z"/>
<path d="M4263 754 c0 -8 12 -21 27 -29 15 -8 39 -32 54 -55 15 -23 30 -39 33
-36 12 12 -86 136 -108 136 -3 0 -6 -7 -6 -16z"/>
<path d="M3494 739 c-3 -6 4 -17 15 -26 21 -14 21 -16 4 -28 -17 -12 -16 -14
10 -20 39 -10 55 7 38 39 -16 29 -57 50 -67 35z"/>
<path d="M3368 683 c7 -3 16 -2 19 1 4 3 -2 6 -13 5 -11 0 -14 -3 -6 -6z"/>
<path d="M3430 680 c8 -5 26 -9 40 -9 23 0 23 1 5 9 -11 5 -29 9 -40 9 -17 1
-17 -1 -5 -9z"/>
<path d="M3900 661 c8 -5 69 -21 135 -35 66 -15 128 -29 139 -32 12 -4 16 -2
12 5 -4 6 -18 11 -31 11 -15 0 -29 9 -36 22 -8 14 -14 18 -17 10 -4 -14 -38
-16 -47 -2 -3 6 -28 10 -55 10 -27 0 -52 5 -55 10 -3 6 -18 10 -33 10 -20 -1
-23 -3 -12 -9z"/>
<path d="M3423 651 c16 -5 35 -15 43 -22 11 -9 18 -9 26 -1 17 17 8 21 -48 27
-39 4 -43 3 -21 -4z"/>
<path d="M3860 586 c-35 -52 -35 -53 -60 -37 -14 9 -21 11 -17 4 9 -14 -12
-93 -23 -93 -4 0 -13 7 -20 15 -14 17 -30 20 -30 5 0 -6 -6 -17 -12 -24 -15
-16 -49 -4 -86 28 -13 11 -39 21 -58 23 -20 1 -43 8 -51 15 -9 7 -27 11 -40
10 -13 -2 -30 2 -38 8 -10 9 -19 9 -35 0 -16 -9 -25 -9 -33 -1 -6 6 -22 11
-36 11 -38 0 -21 -9 86 -46 100 -35 95 -39 -11 -10 -65 18 -76 13 -76 -32 0
-18 -4 -22 -25 -18 -14 3 -23 1 -20 -4 10 -17 -18 -23 -30 -7 -18 25 -30 21
-58 -16 -21 -27 -32 -34 -59 -33 -27 1 -44 13 -88 60 l-55 58 -20 -24 c-22
-26 -117 -56 -172 -54 -17 1 -31 -1 -31 -4 1 -21 -5 -27 -28 -27 -29 0 -74
-22 -74 -35 0 -14 22 -33 57 -52 38 -19 63 -21 63 -3 0 6 20 20 45 31 44 18
46 18 66 0 11 -10 18 -26 16 -35 -4 -13 15 -23 92 -47 53 -17 122 -36 154 -42
65 -13 277 -17 295 -6 7 4 12 2 12 -3 0 -7 36 -11 98 -11 78 0 107 4 140 20
22 11 48 20 57 20 9 0 15 9 15 26 0 35 17 64 38 64 10 0 28 9 39 19 12 11 24
17 27 13 4 -3 11 0 16 8 5 8 12 11 16 7 4 -4 -3 -18 -15 -31 -18 -19 -21 -30
-16 -60 4 -20 13 -36 20 -36 30 0 45 14 51 46 6 35 24 38 24 3 0 -10 6 -19 13
-19 7 0 59 36 115 80 57 44 107 80 112 80 5 0 12 5 16 11 12 19 -306 -8 -486
-41 -108 -21 -148 -24 -137 -14 10 10 184 43 291 54 56 6 116 13 134 16 l33 5
-23 17 c-13 10 -36 23 -51 30 -26 11 -27 13 -12 36 18 27 70 31 98 7 15 -12
17 -11 17 4 0 9 10 19 22 23 15 4 -15 15 -92 33 -63 16 -117 28 -120 29 -3 0
-21 -24 -40 -54z m-295 -136 c3 -6 -1 -7 -9 -4 -18 7 -21 14 -7 14 6 0 13 -4
16 -10z m-612 -77 c-7 -2 -19 -2 -25 0 -7 3 -2 5 12 5 14 0 19 -2 13 -5z m158
-9 c24 -8 60 -13 79 -11 19 3 44 1 55 -4 24 -11 -128 -5 -162 6 -18 6 -23 3
-24 -11 -1 -15 -2 -16 -6 -3 -2 9 -14 21 -26 27 -21 10 -20 11 9 11 17 1 51
-6 75 -15z m-236 -4 c-42 -11 -123 -12 -129 -2 -3 5 32 9 77 9 57 1 73 -2 52
-7z m558 -7 c-7 -2 -21 -2 -30 0 -10 3 -4 5 12 5 17 0 24 -2 18 -5z m197 -58
c0 -8 -4 -15 -10 -15 -5 0 -7 7 -4 15 4 8 8 15 10 15 2 0 4 -7 4 -15z m-42
-45 c5 0 12 -9 15 -21 5 -18 1 -20 -26 -17 -18 2 -31 8 -30 13 1 6 -5 14 -13
18 -15 8 -19 39 -7 51 4 4 18 -4 30 -18 12 -14 26 -26 31 -26z m-216 20 c6
-18 55 -22 62 -5 7 19 33 19 52 1 32 -33 11 -45 -88 -52 -38 -3 -68 -3 -68 -1
0 2 5 18 11 36 11 31 24 40 31 21z m158 -50 c0 -5 -5 -10 -11 -10 -5 0 -7 5
-4 10 3 6 8 10 11 10 2 0 4 -4 4 -10z"/>
<path d="M3720 606 c0 -14 -52 -58 -84 -69 -25 -10 -19 -14 31 -25 40 -9 41
-9 61 27 13 22 19 46 15 59 -6 24 -23 30 -23 8z"/>
<path d="M4610 599 c8 -13 16 -14 54 -5 55 13 51 19 -13 20 -42 1 -48 -1 -41
-15z"/>
<path d="M3048 588 c-27 -6 -48 -14 -48 -19 0 -5 8 -5 18 -2 15 6 15 5 3 -10
-12 -15 -10 -17 27 -17 23 0 44 5 47 10 3 6 -3 10 -15 10 -12 0 -18 5 -15 10
3 6 21 10 38 10 24 0 28 3 17 10 -8 5 -17 9 -20 9 -3 -1 -26 -6 -52 -11z"/>
<path d="M4140 576 c0 -6 9 -19 20 -29 18 -15 23 -16 40 -4 19 13 18 15 -20
30 -29 11 -40 12 -40 3z"/>
<path d="M3268 553 c7 -3 16 -2 19 1 4 3 -2 6 -13 5 -11 0 -14 -3 -6 -6z"/>
<path d="M4856 521 c7 -30 30 -51 55 -51 43 0 30 32 -24 59 l-37 19 6 -27z"/>
<path d="M6261 522 c-23 -8 -57 -11 -94 -7 l-57 6 6 -43 c8 -60 43 -155 76
-207 15 -25 28 -52 28 -62 0 -9 7 -34 16 -55 9 -20 13 -50 10 -65 -5 -24 0
-30 35 -47 21 -11 42 -16 45 -11 3 5 0 9 -5 9 -6 0 -11 5 -11 10 0 6 15 10 33
8 18 -1 38 2 45 6 9 5 12 68 12 237 0 211 -1 229 -17 231 -53 5 -89 2 -122
-10z"/>
<path d="M4761 492 c5 -25 4 -39 -4 -44 -8 -5 -6 -13 7 -27 24 -27 28 -26 43
4 14 32 -2 79 -33 93 -21 10 -21 9 -13 -26z"/>
<path d="M3268 495 c-7 -32 8 -42 21 -16 15 27 14 41 -3 41 -7 0 -16 -11 -18
-25z"/>
<path d="M4493 489 c-25 -9 -30 -19 -10 -19 15 0 43 17 37 23 -3 3 -15 1 -27
-4z"/>
<path d="M4833 483 c9 -9 20 -13 24 -9 4 4 1 11 -7 16 -25 16 -35 11 -17 -7z"/>
<path d="M4078 463 c7 -3 16 -2 19 1 4 3 -2 6 -13 5 -11 0 -14 -3 -6 -6z"/>
<path d="M4302 424 c-24 -17 -29 -34 -9 -34 13 1 53 50 40 50 -5 0 -19 -7 -31
-16z"/>
<path d="M952 383 c-14 -5 -62 -51 -62 -58 0 -3 22 7 50 22 27 14 47 30 44 35
-6 9 -12 9 -32 1z"/>
<path d="M4227 363 c-11 -10 -8 -43 3 -43 6 0 10 11 10 25 0 26 -2 29 -13 18z"/>
<path d="M4132 348 c-7 -7 -12 -16 -12 -21 0 -6 -8 -16 -17 -23 -16 -12 -15
-13 11 -14 24 0 28 3 23 22 -4 12 -1 28 5 35 13 16 6 17 -10 1z"/>
<path d="M385 291 c-27 -15 -65 -35 -83 -45 -19 -9 -32 -19 -29 -22 4 -5 146
71 162 87 14 14 5 10 -50 -20z"/>
<path d="M452 283 c-18 -8 -31 -18 -28 -20 5 -5 66 25 66 32 0 7 -1 7 -38 -12z"/>
<path d="M1031 276 c-9 -10 -6 -12 14 -8 29 5 31 8 11 15 -8 3 -19 0 -25 -7z"/>
<path d="M1088 263 c7 -3 16 -2 19 1 4 3 -2 6 -13 5 -11 0 -14 -3 -6 -6z"/>
<path d="M1155 250 c3 -5 13 -10 21 -10 8 0 12 5 9 10 -3 6 -13 10 -21 10 -8
0 -12 -4 -9 -10z"/>
<path d="M1230 220 c-22 -19 -27 -27 -13 -20 12 5 25 15 28 20 3 6 17 10 30
10 13 0 27 5 30 10 14 23 -44 8 -75 -20z"/>
<path d="M1325 240 c-3 -6 5 -10 19 -10 14 0 28 5 31 10 3 6 -5 10 -19 10 -14
0 -28 -4 -31 -10z"/>
<path d="M1092 216 c-41 -29 -48 -36 -36 -36 5 0 25 14 44 30 42 35 38 38 -8
6z"/>
<path d="M1410 232 c0 -9 116 -9 126 1 4 4 -23 7 -59 7 -37 0 -67 -3 -67 -8z"/>
<path d="M1660 226 c0 -9 50 -12 62 -5 8 6 -1 9 -24 9 -21 0 -38 -2 -38 -4z"/>
<path d="M384 204 c-18 -14 -18 -14 6 -3 31 14 36 19 24 19 -6 0 -19 -7 -30
-16z"/>
<path d="M1739 203 c-13 -15 -12 -16 6 -8 11 5 46 10 78 11 83 1 83 14 0 14
-54 0 -74 -4 -84 -17z"/>
<path d="M1910 216 c0 -2 7 -7 16 -10 8 -3 12 -2 9 4 -6 10 -25 14 -25 6z"/>
<path d="M1965 210 c-18 -8 -17 -9 7 -9 15 -1 30 4 33 9 7 12 -12 12 -40 0z"/>
<path d="M3804 195 c-27 -14 -54 -25 -60 -25 -13 0 -16 -48 -3 -56 5 -3 9 -17
9 -32 0 -15 5 -34 10 -42 7 -11 10 -2 10 33 0 45 24 87 49 87 10 0 26 -45 36
-102 10 -64 25 -53 20 16 -3 49 0 66 11 70 8 3 14 1 14 -4 0 -6 9 -10 20 -10
13 0 20 -7 20 -19 0 -27 10 -51 22 -51 5 0 8 18 7 41 -3 37 9 58 32 59 7 0 25
-64 34 -122 3 -21 10 -38 14 -38 12 0 20 122 10 136 -6 7 0 15 16 22 29 13 31
11 40 -51 9 -57 24 -71 27 -25 1 18 2 41 2 51 2 18 22 37 41 37 6 0 3 -5 -5
-10 -13 -8 -12 -10 3 -10 12 0 17 -8 17 -31 0 -27 2 -30 15 -19 23 19 18 43
-18 78 -31 30 -34 31 -70 20 -30 -9 -54 -9 -110 1 -128 24 -159 23 -213 -4z"/>
<path d="M2238 203 c6 -2 18 -2 25 0 6 3 1 5 -13 5 -14 0 -19 -2 -12 -5z"/>
<path d="M2305 200 c-3 -5 1 -10 9 -10 8 0 18 5 21 10 3 6 -1 10 -9 10 -8 0
-18 -4 -21 -10z"/>
<path d="M2943 203 c9 -2 23 -2 30 0 6 3 -1 5 -18 5 -16 0 -22 -2 -12 -5z"/>
<path d="M3043 203 c9 -2 25 -2 35 0 9 3 1 5 -18 5 -19 0 -27 -2 -17 -5z"/>
<path d="M1384 164 c-18 -14 -18 -14 6 -3 31 14 36 19 24 19 -6 0 -19 -7 -30
-16z"/>
<path d="M3275 173 c-90 -5 -155 -14 -155 -23 0 -5 14 -16 31 -24 29 -15 33
-15 45 2 7 9 14 21 14 25 0 5 5 5 11 2 6 -4 8 -13 5 -20 -5 -14 30 -9 40 6 9
15 40 10 57 -9 10 -11 17 -35 17 -57 l0 -38 25 23 c18 17 23 30 19 47 -5 18
-2 23 12 23 20 1 61 27 53 34 -6 6 -118 11 -174 9z"/>
<path d="M1608 137 c-26 -18 -50 -37 -52 -44 -6 -14 75 39 94 62 17 21 12 19
-42 -18z"/>
<path d="M3500 155 c0 -7 6 -18 14 -25 8 -6 12 -18 10 -25 -3 -8 -1 -22 4 -32
10 -16 12 -15 21 10 6 16 9 32 7 36 -12 18 11 32 37 22 21 -8 28 -19 33 -51 4
-22 10 -40 13 -40 15 0 31 25 31 49 0 14 10 35 22 48 l22 23 -107 -1 c-80 -1
-107 -4 -107 -14z"/>
<path d="M1120 140 c-14 -11 -20 -20 -15 -19 13 0 50 28 44 33 -2 3 -15 -4
-29 -14z"/>
<path d="M2959 140 c-13 -10 -19 -19 -13 -20 6 0 19 9 29 20 23 26 14 26 -16
0z"/>
<path d="M20 95 c-14 -8 -20 -14 -14 -15 5 0 19 7 30 15 24 18 16 19 -16 0z"/>
</g>
</svg>
