<?xml version="1.0" encoding="UTF-8"?>
<svg id="Layer_2" data-name="Layer 2" xmlns="http://www.w3.org/2000/svg" xmlns:xlink="http://www.w3.org/1999/xlink" viewBox="0 0 844.44 1011.39">
  <defs>
    <style>
      .cls-1, .cls-2, .cls-3, .cls-4, .cls-5 {
        fill: none;
      }

      .cls-2 {
        isolation: isolate;
      }

      .cls-6 {
        filter: url(#luminosity-noclip);
      }

      .cls-7 {
        fill: #f2e180;
      }

      .cls-8 {
        fill: #f0df7d;
      }

      .cls-9 {
        fill: #e3d47d;
      }

      .cls-10 {
        fill: #fff;
      }

      .cls-11 {
        fill: #fff09c;
      }

      .cls-12 {
        fill: #ebdc8a;
      }

      .cls-13 {
        fill: #ff8c7f;
      }

      .cls-14 {
        fill: #333;
      }

      .cls-15 {
        fill: #ad3326;
      }

      .cls-16 {
        fill: #d9c86a;
      }

      .cls-17 {
        fill: #d9c868;
      }

      .cls-18 {
        fill: #c94334;
      }

      .cls-19, .cls-20 {
        fill: #1a1a1a;
      }

      .cls-21 {
        fill: #4d4d4d;
      }

      .cls-3 {
        mask: url(#mask-2);
      }

      .cls-4 {
        mask: url(#mask-1);
      }

      .cls-5 {
        mask: url(#mask);
      }

      .cls-22 {
        fill: url(#linear-gradient-2);
      }

      .cls-23 {
        fill: url(#linear-gradient);
        mix-blend-mode: multiply;
      }

      .cls-20 {
        font-family: FuturaBT-Bold, 'Futura Md BT';
        font-size: 125.47px;
        font-weight: 700;
      }
    </style>
    <filter id="luminosity-noclip" x="232.69" y="936.12" width="387.65" height="76.45" color-interpolation-filters="sRGB" filterUnits="userSpaceOnUse">
      <feFlood flood-color="#fff" result="bg"/>
      <feBlend in="SourceGraphic" in2="bg"/>
    </filter>
    <filter id="luminosity-noclip-2" x="232.69" y="-8773.42" width="387.65" height="32766" color-interpolation-filters="sRGB" filterUnits="userSpaceOnUse">
      <feFlood flood-color="#fff" result="bg"/>
      <feBlend in="SourceGraphic" in2="bg"/>
    </filter>
    <mask id="mask-2" x="232.69" y="-8773.42" width="387.65" height="32766" maskUnits="userSpaceOnUse"/>
    <linearGradient id="linear-gradient" x1="426.52" y1="460.28" x2="426.52" y2="92.28" gradientTransform="translate(0 1162.95) scale(1 -1)" gradientUnits="userSpaceOnUse">
      <stop offset="0" stop-color="#fff"/>
      <stop offset="1" stop-color="#000"/>
    </linearGradient>
    <mask id="mask-1" x="232.69" y="936.12" width="387.65" height="76.45" maskUnits="userSpaceOnUse">
      <g class="cls-6">
        <g class="cls-3">
          <rect class="cls-23" x="232.69" y="936.12" width="387.65" height="76.45"/>
        </g>
      </g>
    </mask>
    <linearGradient id="linear-gradient-2" x1="426.52" y1="460.28" x2="426.52" y2="92.28" gradientTransform="translate(0 1162.95) scale(1 -1)" gradientUnits="userSpaceOnUse">
      <stop offset="0" stop-color="#fff"/>
      <stop offset="1" stop-color="#fff"/>
    </linearGradient>
    <mask id="mask" x="232.69" y="936.12" width="387.65" height="76.45" maskUnits="userSpaceOnUse">
      <g id="id0">
        <g class="cls-4">
          <rect class="cls-22" x="232.69" y="936.12" width="387.65" height="76.45"/>
        </g>
      </g>
    </mask>
  </defs>
  <g id="LOGO">
    <g>
      <path class="cls-19" d="m426.52,741.83c-40.67,0-81.35-5.65-111.27-16.96-91.96-34.76-107.53-121.8-79.75-201.63-16.25-6.44-43.79-19.24-62.73-38.08l-.11.15c-.18-.14-62.89-45.54-17.86-146.73,46.83-105.23,148.92-181.81,271.83-181.5,123.72.63,224.58,75.81,271.61,181.5,45.02,101.19-17.68,146.59-17.86,146.73l-.11-.15c-18.94,18.84-46.48,31.64-62.74,38.08,27.79,79.83,12.22,166.87-79.74,201.63-29.93,11.31-70.6,16.96-111.27,16.96h0Z"/>
      <g class="cls-5">
        <path d="m426.52,937.3c106.39,0,192.64,16.58,192.64,37.04s-86.25,37.05-192.64,37.05-192.65-16.59-192.65-37.05,86.25-37.04,192.65-37.04h0Z"/>
      </g>
      <path class="cls-18" d="m426.52,184.41c-112.12,0-204.28,69.86-246.75,165.31-10.61,23.85-14.17,43.49-13.92,59.35,46.46-57.92,174.43-81.86,260.67-81.63,86.24-.23,214.21,23.71,260.67,81.63.25-15.86-3.31-35.5-13.92-59.35-42.47-95.45-134.63-165.31-246.75-165.31h0Z"/>
      <path class="cls-13" d="m426.52,184.41c-32.67,0-63.64,5.94-92.18,16.71,51.42-7.41,132.94-7.41,184.36,0-28.54-10.77-59.51-16.71-92.18-16.71Z"/>
      <path class="cls-15" d="m214.64,290.99c-13.81,18.03-25.54,37.76-34.87,58.73-10.61,23.85-14.17,43.49-13.92,59.35,19.64-24.48,53.85-42.89,93.3-55.97h0c-66.25-7.06-44.67-61.69-44.51-62.11h0Z"/>
      <path class="cls-11" d="m426.52,413.26c-55.66,0-111.33,9.92-149.76,29.76,1.58,14.03,1.82,43.47-13.89,85.02-13.47,35.64-20.1,87.04,3.01,125.32,29.6,49.02,96.06,60.84,160.64,60.98,64.58-.14,131.04-11.96,160.63-60.98,23.12-38.28,16.49-89.68,3.02-125.32-15.71-41.55-15.47-70.99-13.89-85.02-38.43-19.84-94.1-29.76-149.76-29.76h0Z"/>
      <path class="cls-8" d="m309.93,429.56c-12.02,3.81-23.18,8.3-33.17,13.46,1.58,14.03,1.82,43.47-13.89,85.02-13.47,35.64-20.1,87.04,3.01,125.32,29.6,49.02,96.06,60.84,160.64,60.98-68.65-2.71-118.8-26.9-135.43-79-13.3-41.69-2.32-73.36,8.15-113.21,7.93-30.18,12.47-51.89,10.69-92.57h0Z"/>
      <path class="cls-7" d="m264.93,418.4c80.55-43.38,242.63-43.38,323.17,0,29.46,15.87,31.47,42.41,24.2,52.34-2.77-3.47-5.96-6.8-9.52-9.98.34,9.11,1.88,21.32,6.09,36.58,15.59-6.09,41.43-17.92,55.24-33.84l-.12-.16c4.57-3.43,8.93-13.53,9.42-19.62,1.19-14.83-18.75-33.39-51.6-49.66-105.38-52.18-285.2-52.18-390.58,0-32.85,16.27-52.79,34.83-51.6,49.66.49,6.09,4.85,16.19,9.42,19.62l-.12.16c13.81,15.92,39.65,27.75,55.24,33.84,4.21-15.26,5.75-27.47,6.09-36.58-3.56,3.18-6.75,6.51-9.52,9.98-7.27-9.93-5.26-36.47,24.19-52.34h0Z"/>
      <path class="cls-16" d="m264.93,418.4c40.28-21.69,100.93-32.54,161.59-32.54s121.31,10.85,161.58,32.54c29.46,15.87,31.47,42.41,24.2,52.34-2.77-3.47-5.96-6.8-9.52-9.98.34,9.11,1.88,21.32,6.09,36.58,15.59-6.09,41.43-17.92,55.24-33.84l-.12-.16c4.57-3.43,8.93-13.53,9.42-19.62.86-10.7-9.28-23.35-27.34-35.67,15.77,16.11.19,39.97-17.35,25.4-21.13-17.53-71.13-57.82-202.2-59.77-131.07,1.95-181.07,42.24-202.2,59.77-17.54,14.57-33.12-9.29-17.35-25.4-18.06,12.32-28.2,24.97-27.34,35.67.49,6.09,4.85,16.19,9.42,19.62l-.12.16c13.81,15.92,39.65,27.75,55.24,33.84,4.21-15.26,5.75-27.47,6.09-36.58-3.56,3.18-6.75,6.51-9.52,9.98-7.27-9.93-5.26-36.47,24.19-52.34h0Z"/>
      <path class="cls-19" d="m406.56,273.47c-9.83.69-11.03,6.13-11.03,6.14v.03c-5.34,22.01-17.27,35.91-33.91,43.9-15.99,7.69-36.08,9.63-58.66,8.02-23.99-1.71-39.6-12.55-49.49-28.3-8.47-13.48-12.48-30.43-13.89-48.12l-6.16-.17c-6.4-.35-9.95-1.93-12.35-5.8-2.02-3.26-2.1-6.65-2.1-11.8s.36-9.64,2.31-13.34c2.52-4.78,6.68-7.45,13.8-7.45h14.34c20.08-13.32,48.84-18.85,76.41-16.45,26.91,2.35,52.99,12.27,69.21,29.9,5.21,2.22,18.19,3.33,31.48,3.33s26.27-1.11,31.48-3.33c16.22-17.63,42.29-27.55,69.21-29.9,27.57-2.4,56.33,3.13,76.41,16.45h14.33c7.13,0,11.29,2.67,13.81,7.45,1.95,3.7,2.31,8.11,2.31,13.34s-.09,8.54-2.11,11.8c-2.39,3.87-5.94,5.45-12.34,5.8l-6.16.17c-1.41,17.69-5.42,34.64-13.89,48.12-9.89,15.75-25.5,26.59-49.49,28.3-22.58,1.61-42.67-.33-58.66-8.02-16.64-7.99-28.57-21.89-33.91-43.9v-.03s-1.2-5.45-11.03-6.14c-4.74-.34-12.3-.5-19.96-.5s-15.22.16-19.96.5h0Z"/>
      <g>
        <path class="cls-19" d="m320.24,547.96c-1.94-3.89-3.49-8.26-4.61-12.93-1.36-5.67-2.08-11.71-2.08-17.8,0-12.9,3.09-24.69,8.08-33.32,5.56-9.59,13.55-15.53,22.68-15.53s17.12,5.94,22.67,15.53c4.99,8.64,8.08,20.42,8.08,33.32,0,6.39-.77,12.67-2.23,18.48-.81,3.25-1.85,6.36-3.09,9.27,4.72,3.75,8.71,8.88,11.47,15.42.7,1.66-.05,3.58-1.69,4.32l-.45.2c-1.57.7-3.39.11-4.25-1.37-11.22-19.51-45.13-19.51-56.36,0-.85,1.48-2.67,2.07-4.24,1.37l-.45-.2c-1.64-.74-2.39-2.66-1.69-4.32,2.09-4.95,4.88-9.1,8.16-12.44h0Z"/>
        <path class="cls-19" d="m318.11,458.41c12.59-24.33,42.42-27.19,55.57-4.06.63,1.1.74,2.29.34,3.48-.41,1.19-1.21,2.07-2.37,2.56l-3.08,1.31c-1.96.84-4.21.11-5.32-1.71-9.3-15.29-31.91-14.42-40.5.88-.61,1.08-1.92,1.51-3.05,1l-.46-.21c-.62-.27-1.04-.74-1.27-1.38-.22-.64-.17-1.27.14-1.87h0Z"/>
        <path class="cls-19" d="m535,560.4c-2.08-4.95-4.88-9.1-8.16-12.44,1.94-3.89,3.49-8.26,4.61-12.93,1.36-5.67,2.08-11.71,2.08-17.8,0-12.9-3.09-24.69-8.08-33.32-5.55-9.59-13.55-15.53-22.68-15.53s-17.12,5.94-22.67,15.53c-4.99,8.63-8.08,20.42-8.08,33.32,0,6.39.77,12.67,2.23,18.48.81,3.25,1.85,6.36,3.09,9.27-4.72,3.75-8.71,8.88-11.47,15.42-.7,1.66.06,3.58,1.7,4.32l.45.2c1.56.7,3.38.11,4.24-1.37,11.22-19.51,45.13-19.51,56.36,0,.85,1.48,2.68,2.07,4.24,1.37l.45-.2c1.64-.74,2.39-2.66,1.69-4.32h0Z"/>
        <path class="cls-19" d="m528.98,458.41c-12.6-24.33-42.43-27.19-55.58-4.06-.63,1.1-.74,2.29-.34,3.48.41,1.19,1.21,2.07,2.38,2.56l3.07,1.31c1.97.84,4.21.11,5.32-1.71,9.3-15.29,31.91-14.42,40.5.88.61,1.08,1.92,1.51,3.05,1l.46-.21c.62-.27,1.05-.74,1.27-1.38.22-.64.18-1.27-.13-1.87h0Z"/>
        <g>
          <path class="cls-19" d="m380.88,610.91c21.41,28.26,63.91,28.26,85.32,0-2.14-2.81-4.26-5.27-1.06-7.82,1.34-1.06,3.24-.95,4.44.27,6.81,6.93,16.76,9.98,26.35,7.95,6.58-1.38,9.83,9.94,2.71,11.53-3.37.75-6.68,1.02-9.89.79,2.07,37.44-27.74,68.92-65.21,68.92s-67.28-31.48-65.21-68.92c-3.51.25-11.28.41-13.34-3.4-1.88-3.48,1.06-9.99,6.16-8.92,9.59,2.03,19.54-1.02,26.35-7.95,2.81-2.85,7.69,1.01,5.56,4.4-.69,1.11-1.42,2.16-2.18,3.15h0Z"/>
          <path class="cls-10" d="m399.27,667.23l-1.82,6.69c6.08,3.41,12.91,5.66,20.17,6.46v-8.75c-6.43-.58-12.59-2.09-18.35-4.4h0Z"/>
          <path class="cls-10" d="m406.28,641.64l-3.86,14.09c4.75,2.04,9.86,3.41,15.2,4v-16.04c-3.89-.35-7.68-1.05-11.34-2.05h0Z"/>
          <path class="cls-10" d="m387.25,666.51l1.3-4.78c-4.78-3.04-9.14-6.68-12.98-10.84,2.92,5.9,6.89,11.19,11.68,15.62Z"/>
          <path class="cls-10" d="m386.67,632.54l-4.78,7.59c2.89,3.59,6.25,6.81,9.96,9.54l3.34-12.19-8.52-4.94h0Z"/>
          <path class="cls-10" d="m374.96,628.98l2.54-4.03c-1.87-1.87-3.64-3.84-5.27-5.92-.21.13-.41.26-.62.38.82,3.32,1.95,6.52,3.35,9.57h0Z"/>
          <path class="cls-10" d="m447.81,667.23l1.83,6.69c-6.09,3.41-12.92,5.66-20.18,6.46v-8.75c6.43-.58,12.59-2.09,18.35-4.4h0Z"/>
          <path class="cls-10" d="m440.8,641.64l3.86,14.09c-4.75,2.04-9.86,3.41-15.2,4v-16.04c3.89-.35,7.68-1.05,11.34-2.05h0Z"/>
          <path class="cls-10" d="m459.83,666.51l-1.3-4.78c4.78-3.04,9.14-6.68,12.98-10.84-2.91,5.9-6.89,11.19-11.68,15.62h0Z"/>
          <path class="cls-10" d="m460.41,632.54l4.78,7.59c-2.89,3.59-6.25,6.81-9.96,9.54l-3.34-12.19,8.52-4.94h0Z"/>
          <path class="cls-10" d="m472.12,628.98l-2.54-4.03c1.87-1.87,3.64-3.84,5.28-5.92.2.13.4.26.61.38-.82,3.32-1.95,6.52-3.35,9.57h0Z"/>
        </g>
        <path class="cls-10" d="m356.12,493.87c8.74-8.74,19.52-12.14,24.07-7.59s1.15,15.33-7.59,24.07c-8.74,8.74-19.52,12.14-24.07,7.59s-1.15-15.33,7.59-24.07Z"/>
        <ellipse class="cls-10" cx="523.37" cy="502.11" rx="22.39" ry="11.66" transform="translate(-201.76 517.14) rotate(-45)"/>
        <path class="cls-19" d="m401.99,576.38c2.11-28.69,40.98-28.69,43.09,0,.07.96-.23,1.81-.88,2.51s-1.48,1.06-2.43,1.06h-.5c-1.5,0-2.78-.97-3.19-2.41-4.08-14.3-25.01-14.3-29.09,0-.41,1.44-1.68,2.41-3.19,2.41h-.49c-.96,0-1.78-.36-2.44-1.06-.65-.7-.94-1.55-.88-2.51Z"/>
      </g>
      <path class="cls-21" d="m426.52,247.16c-16.04,0-32.43-1.84-39.04-5.53l-1.02-.57-.79-.89c-13.63-15.45-36.8-24.18-61.02-26.29-25.44-2.22-51.71,2.9-69.15,15.24l-1.8,1.27h-18.62c-1.14,0-1.6.02-1.61.05-.59,1.12-.7,3.66-.7,6.93v4.57c.38.6.06-.79,1.41-.71l12.27.35,6.19.36.28,6.22c.82,17.83,4.15,34.97,12.19,47.77,7.64,12.15,19.86,20.53,38.82,21.88,20.38,1.46,38.18-.14,51.76-6.66,12.91-6.21,22.21-17.19,26.47-34.74.16-.66,3.88-15.32,23.49-16.69,5.24-.37,13.11-.56,20.87-.56s15.63.19,20.87.56c19.61,1.37,23.33,16.03,23.49,16.69,4.26,17.55,13.56,28.53,26.47,34.74,13.57,6.52,31.38,8.12,51.76,6.66,18.96-1.35,31.18-9.73,38.82-21.88,8.04-12.8,11.37-29.94,12.19-47.77l.28-6.22,6.19-.36,12.27-.35c1.35-.08,1.03,1.31,1.4.71v-4.57c.01-3.27-.1-5.81-.69-6.93-.02-.03-.47-.05-1.62-.05h-18.61l-1.8-1.27c-17.45-12.34-43.71-17.46-69.15-15.24-24.22,2.11-47.39,10.84-61.03,26.29l-.78.89-1.02.57c-6.61,3.69-23.01,5.53-39.04,5.53h0Z"/>
      <path class="cls-19" d="m270.62,286.94c-7.43-13.81-9.49-32.04-9.19-47.96l.06-3,2.18-1.99c.98-.89,2.05-1.76,3.22-2.63,13.19-9.74,34.38-13.59,54.96-11.79,20.64,1.79,41.1,9.26,52.81,22.15.97,1.06,1.91,2.21,2.81,3.43l1.38,1.86-.03,2.29c-.08,7.52-.36,17.35-2.61,26.58-2.49,10.23-7.34,19.62-16.72,24.75-7.18,3.93-16.72,6.62-26.82,8.01-10.37,1.43-21.5,1.53-31.37.23-14.76-1.95-24.48-10.41-30.68-21.93Z"/>
      <path class="cls-14" d="m275.16,242.37c.03,13.17,1.9,27.48,7.59,38.05,4.21,7.81,10.67,13.53,20.33,14.81,8.65,1.14,18.49,1.04,27.7-.23,8.58-1.18,16.48-3.36,22.13-6.45,5.31-2.9,8.26-9.04,9.93-15.9,1.69-6.95,2.08-14.65,2.2-21.03l-.57-.63c-9.25-10.18-26.28-16.15-43.8-17.68-17.53-1.52-35.11,1.41-45.51,9.06h0Z"/>
      <g>
        <path class="cls-10" d="m294.55,292.61c2.52,1.3,5.35,2.2,8.53,2.62.77.1,1.55.19,2.34.28l16.63-62.07c-.46-.04-.92-.09-1.38-.13-3.39-.29-6.79-.42-10.13-.38l-15.99,59.68h0Z"/>
        <path class="cls-10" d="m314.77,296.02c5.02.05,10.15-.26,15.12-.9l15.13-56.46c-4.34-1.64-9.01-2.94-13.84-3.88l-16.41,61.24h0Z"/>
      </g>
      <path class="cls-19" d="m582.42,286.94c7.43-13.81,9.49-32.04,9.19-47.96l-.06-3-2.18-1.99c-.98-.89-2.06-1.76-3.22-2.63-13.19-9.74-34.38-13.59-54.97-11.79-20.63,1.79-41.09,9.26-52.8,22.15-.97,1.06-1.91,2.21-2.82,3.43l-1.37,1.86.03,2.29c.08,7.52.36,17.35,2.61,26.58,2.49,10.23,7.34,19.62,16.72,24.75,7.18,3.93,16.72,6.62,26.82,8.01,10.37,1.43,21.5,1.53,31.37.23,14.76-1.95,24.48-10.41,30.68-21.93h0Z"/>
      <path class="cls-14" d="m577.88,242.37c-.03,13.17-1.91,27.48-7.59,38.05-4.21,7.81-10.67,13.53-20.33,14.81-8.65,1.14-18.49,1.04-27.7-.23-8.59-1.18-16.48-3.36-22.13-6.45-5.31-2.9-8.26-9.04-9.93-15.9-1.69-6.95-2.08-14.65-2.2-21.03l.57-.63c9.25-10.18,26.28-16.15,43.8-17.68,17.53-1.52,35.11,1.41,45.51,9.06h0Z"/>
      <g>
        <path class="cls-10" d="m518.56,294.42c-3.9-.68-7.59-1.58-10.93-2.69l15.31-57.15c3.1-.57,6.26-.99,9.43-1.27.87-.07,1.74-.14,2.61-.19l-16.42,61.3h0Z"/>
        <path class="cls-10" d="m542.53,295.9c-4.83.24-9.86.14-14.8-.29l16.78-62.63c5.01.16,9.88.71,14.44,1.65l-16.42,61.27h0Z"/>
      </g>
      <path class="cls-10" d="m543.1,429.56c12.02,3.81,23.19,8.3,33.18,13.46-1.58,14.03-1.82,43.47,13.89,85.02,13.47,35.64,20.1,87.04-3.02,125.32-29.59,49.02-96.05,60.84-160.63,60.98,68.65-2.71,118.8-26.9,135.43-79,13.3-41.69,2.32-73.36-8.15-113.21-7.93-30.18-12.47-51.89-10.7-92.57Z"/>
      <path class="cls-15" d="m638.4,290.99c13.81,18.03,25.54,37.76,34.87,58.73,10.61,23.85,14.17,43.49,13.92,59.35-19.64-24.48-53.85-42.89-93.3-55.97h0c66.25-7.06,44.67-61.69,44.51-62.11h0Z"/>
      <path class="cls-19" d="m523.2,712.49v145.94c33.91,4.85,33.73,31.31,20.72,38.09l-.36,10.66c23.84,12.88,32.05,36.79,31.45,65.54-17.24,9.54-42.46,13.29-71.76,10.88-23.14-1.91-45-8.3-54.64-20.08l-1.44-3.48c-.01-.12-4.67-41.54,11.71-65.99-9.52-12.49-2.41-31.72,24.89-35.62v-136.19c-.93.14-1.92.3-2.97.5,18.81-3.08,37.77-8.83,42.4-10.25h0Z"/>
      <path class="cls-19" d="m610.27,568c11.15,3.39,23.54,6.86,36.54,9.79,15.2,3.43,31.38,6.16,47.61,7.21.81.04,1.59-.05,2.07-.76,1.71-2.54,3.1-7.97,3.84-18.67,1.57-22.98,1.97-40.28,2.07-47.56-9.39-5.53-17.11-11.81-20.51-18.11-7.6-14.08-3.06-25.8-.12-31.01-4.87-4.13-8.77-8.84-11.34-14.46-6.83-14.88-8.41-30.82-7.31-44.15.4-4.86,1.27-9.26,2.57-13.17,2.31-6.92,6.01-12.21,10.93-15.71,5.07-3.61,11.2-5.2,18.22-4.63h.03c.47.04.94.09,1.42.15v-38.47c0-12.48,5.3-20.31,12.24-23.88,3-1.54,6.27-2.25,9.57-2.18,3.21.07,6.43.89,9.4,2.41,7.61,3.9,13.72,12.39,13.72,24.63v44.22c12.73,2.52,20.36,10.21,23.66,14.38,16.99,3.4,22.69,16.49,24.38,22.13,5.67,4.74,11.01,10.97,14.24,20.26,3.41,9.83,4.32,22.91.38,40.98-3.29,15.07-11.96,22.01-21.53,24.8l-.02.3c-.43,6.04-1.83,13.23-5.35,19.1-4.01,6.7-10.41,11.53-20.48,11.35-.72-.02-1.26-.04-1.59-.06-1.67-.12-3.56-.37-5.61-.75l-1.08,59.33c.19,2.42,2.85,43.57-39.49,39.59-16.6-1.57-39.66-6.13-61.27-11.76-17.12-4.47-33.47-9.65-45.17-14.61l7.98-40.69h0Z"/>
      <path class="cls-11" d="m484.04,871.67c.69,3.97,2.6,7.52,5.33,10.25,3.46,3.46,8.23,5.61,13.5,5.61h1.23c5.26,0,10.04-2.15,13.5-5.61,2.7-2.7,4.6-6.2,5.3-10.12,8.6,1.62,19.8,5.7,14.67,14.42-1.95,3.31-5.68,4.52-11.07,5.56-1.58.3-2.67,1.7-2.57,3.3l.06.94c.09,1.56,1.29,2.8,2.85,2.95,1.25.13,2.55.2,3.86.21l-.1,2.97c-20.67-4.96-41.46,4.49-54.57,20.59-1.07,1.32-.91,3.25.37,4.37l.41.36c1.25,1.1,3.14,1.05,4.32-.14,13.03-13,33.03-17.57,50.43-11.17,8.38,3.09,15.93,8.7,21.38,16.92,5.31,8,8.69,18.52,9.02,31.63-12.86,5.38-35.88,7.56-57.63,5.77-18.92-1.56-36.4-6.05-44.28-13.92-.65-8.3-2.11-39.29,10.59-56.37,2.83.52,5.89.75,9.04.81,1.58.03,2.92-1.07,3.18-2.63l.15-.87c.28-1.61-.7-3.15-2.28-3.58-5.44-1.51-9.39-4.4-11.33-7.7-.84-1.42-1.26-2.89-1.2-4.28.06-1.26.57-2.56,1.58-3.8,2.34-2.86,6.93-5.24,14.26-6.47h0Z"/>
      <path class="cls-10" d="m481.13,927.33c13.03-13,33.03-17.57,50.43-11.17,8.38,3.09,15.93,8.7,21.38,16.92,5.31,8,8.69,18.52,9.02,31.63-2.23.94-4.77,1.77-7.56,2.51-.76-40.81-31.45-62.82-73.27-39.89Z"/>
      <path class="cls-11" d="m733.33,397.65c.72-.91,1.51-1.36,2.01-1.57,14.28,1.15,20.14,11.29,20.16,11.32l1.65,2.82,3.21.4c14.6,1.82,16.57,14.38,16.58,14.42l.44,2.5,2,1.56c4.67,3.63,9.19,8.38,11.72,15.65,2.68,7.7,3.29,18.41-.08,33.88-4.86,22.25-29.96,20.13-38.56,18.72-1.65-.27-3.21.77-3.6,2.39l-.32,1.37c-.39,1.64.57,3.29,2.19,3.77,3.7,1.09,10.6,2.78,18.27,2.93-.45,3.84-1.41,7.92-3.29,11.05-1.75,2.93-4.57,5.05-9.01,4.97l-.87-.06c-8.68-.62-24.79-5.85-38.93-12.86-10.99-5.44-20.46-11.72-23.44-17.24-4.23-7.83-2.42-14.1-.87-17.27,2,1.17,4.09,2.3,6.24,3.4,1.46.74,3.23.26,4.11-1.12l.62-.98c.91-1.43.54-3.32-.85-4.29-9.69-6.82-16.19-15.37-20.35-24.43-5.75-12.55-7.06-26.18-6.12-37.67.32-3.85.96-7.2,1.9-10.03,1.41-4.22,3.47-7.31,6.09-9.18,2.48-1.76,5.69-2.52,9.56-2.21,2.19.19,4.53.68,7.01,1.51,8.63,2.88,14.97,6.19,18.83,10.01,9.52,9.41.56,17.57-10.01,15.65-2.72,2.66-4.66,6.61-5.19,10.89-.33,2.64-.13,5.49.74,8.31.88,2.83,2.42,5.57,4.77,7.97,3.11,3.18,7.59,5.77,13.77,7.1,6.52,11.34,17.66,13.79,23.41,14.28,14.88,17.06,29.27-.82,33.87-7.61.91-1.34.67-3.11-.55-4.17l-.63-.55c-1.24-1.07-3.07-1.03-4.25.1-4.05,3.84-13.39,10.93-19.9,1.91l-2.14-2.97-3.62.25s-11.24.86-15.78-9.74l-1.49-3.49-3.76-.47c-4.77-.6-7.78-2.02-9.51-3.79-.82-.84-1.35-1.76-1.63-2.68-.29-.92-.35-1.91-.23-2.86.03-.29.09-.58.15-.85,6.41.11,17.25-1.75,18.94-15.27.73-5.83-.38-11.07-3.26-15.77h0Z"/>
      <path class="cls-12" d="m775.56,453.38c-4.05,3.84-13.39,10.93-19.9,1.91l-2.14-2.97-3.62.25s-11.24.86-15.78-9.74l-1.49-3.49-3.76-.47c-4.77-.6-7.78-2.02-9.51-3.79-.82-.84-1.35-1.76-1.63-2.68-.29-.92-.35-1.91-.23-2.86.03-.29.09-.58.15-.85,6.41.11,17.25-1.75,18.94-15.27,2.09,7.22-3.47,9.09-4.76,15.41-1.28,6.32,5.87,7.21,5.87,7.21,2.67,12.55,19.86,10.7,19.86,10.7,6.89,12.86,18,6.64,18,6.64h0Z"/>
      <path class="cls-10" d="m733.33,397.65c.72-.91,1.51-1.36,2.01-1.57,14.28,1.15,20.14,11.29,20.16,11.32l1.65,2.82,3.21.4c14.6,1.82,16.57,14.38,16.58,14.42l.44,2.5s-7.73-14.6-24.3-12.13c0,0-1.11-11.86-19.75-17.76h0Z"/>
      <path class="cls-11" d="m728.04,385.21c-1.23.74-2.55,1.72-3.8,2.99-3.99-2.86-8.93-5.39-14.77-7.64v-42.11c0-6.8,2.2-10.71,5.09-12.2,1.01-.52,2.14-.76,3.28-.74,1.23.03,2.5.36,3.69.97,3.62,1.85,6.51,6.27,6.51,12.95v45.78h0Z"/>
      <path class="cls-10" d="m709.57,335.97c.47-5.29,2.47-8.42,4.99-9.72,1.01-.52,2.14-.76,3.28-.74,1.23.03,2.5.36,3.69.97,3.62,1.85,6.51,6.27,6.51,12.95v17.32c-1.44-9.39-.96-20.6-4.34-25.31-3.07-4.26-11.04-4.81-14.13,4.53h0Z"/>
      <path class="cls-12" d="m728.04,385.21c-1.23.74-2.55,1.72-3.8,2.99-3.99-2.86-8.93-5.39-14.77-7.64v-24.17c.63,19.29,18.57,16.31,18.57,16.31v12.51h0Z"/>
      <path class="cls-12" d="m743.92,488.99c25.73,15.64,47.1-10.36,47.1-10.36-4.86,22.25-29.96,20.13-38.56,18.72-1.65-.27-3.21.77-3.6,2.39l-.32,1.37c-.39,1.64.57,3.29,2.19,3.77,3.7,1.09,10.6,2.78,18.27,2.93-.45,3.84-1.41,7.92-3.29,11.05-1.75,2.93-4.57,5.05-9.01,4.97l-.87-.06c-8.68-.62-24.79-5.85-38.93-12.86-10.99-5.44-20.46-11.72-23.44-17.24-4.23-7.83-2.42-14.1-.87-17.27,2,1.17,4.09,2.3,6.24,3.4,1.46.74,3.23.26,4.11-1.12l.62-.98c.91-1.43.54-3.32-.85-4.29-9.69-6.82-16.19-15.37-20.35-24.43-4.6-10.05-6.36-20.8-6.4-30.58,6.14,38.28,42.23,54.95,67.96,70.59h0Z"/>
      <path class="cls-10" d="m710.68,400.38c-12.86-5.56-27.13-12.68-33.78,5.85.32-1.79.74-3.45,1.24-4.95,1.41-4.22,3.47-7.31,6.09-9.18,2.48-1.76,5.69-2.52,9.56-2.21,2.19.19,4.53.68,7.01,1.51,8.63,2.88,14.97,6.19,18.83,10.01,4.76,4.71,4.9,9.1,2.52,12.08,0,0,1.4-7.55-11.47-13.11Z"/>
      <path class="cls-19" d="m329.84,712.49v145.94c-11.94,1.71-19.79,6.02-24.17,11.37-2.89,3.52-4.34,7.49-4.52,11.57-.36,7.93,3.06,12.59,7.96,15.15l.36,10.66c-7.88,4.26-14.9,10.46-20.33,18.64-7.23,10.89-11.56,25.25-11.19,43.13l.07,3.77,3.32,1.83c14,7.76,42.4,11.19,68.45,9.05,23.14-1.91,45-8.3,54.64-20.08l1.23-1.5.21-1.98c0-.12,4.66-41.54-11.71-65.99.29-.38.55-.77.8-1.19,2.12-3.6,3.18-7.54,3-11.49-.19-4.08-1.64-8.05-4.52-11.57-4.38-5.35-12.23-9.66-24.17-11.37v-136.19c.93.14,1.92.3,2.97.5-.99-.17-1.98-.33-2.97-.5-14.78-2.19-39.43-9.75-39.43-9.75h0Z"/>
      <path class="cls-19" d="m242.77,568c-11.15,3.39-23.54,6.86-36.54,9.79-15.21,3.43-31.38,6.16-47.61,7.21-.81.04-1.59-.05-2.07-.76-1.72-2.54-3.1-7.97-3.84-18.67-1.57-22.98-1.97-40.28-2.07-47.56,9.39-5.53,17.11-11.81,20.51-18.11,7.6-14.08,3.05-25.8.12-31.01,4.87-4.13,8.76-8.84,11.34-14.46,6.83-14.88,8.4-30.82,7.31-44.15-.4-4.86-1.27-9.26-2.58-13.17-2.31-6.92-6-12.21-10.92-15.71-5.07-3.61-11.2-5.2-18.23-4.63h-.02c-.47.04-.95.09-1.43.15v-38.47c0-12.48-5.29-20.31-12.24-23.88-2.99-1.54-6.27-2.25-9.56-2.18-3.21.07-6.43.89-9.4,2.41-7.61,3.9-13.72,12.39-13.72,24.63v44.22c-12.73,2.52-20.36,10.21-23.67,14.38-16.98,3.4-22.68,16.49-24.38,22.13-5.66,4.74-11,10.97-14.23,20.26-3.42,9.83-4.33,22.91-.38,40.98,3.28,15.07,11.96,22.01,21.53,24.8l.02.3c.43,6.04,1.83,13.23,5.35,19.1,4.01,6.7,10.41,11.53,20.48,11.35.72-.02,1.26-.04,1.59-.06,1.67-.12,3.55-.37,5.61-.75l1.08,59.33c-.19,2.42-2.86,43.57,39.48,39.59,16.61-1.57,39.66-6.13,61.28-11.76,17.12-4.47,33.47-9.65,45.17-14.61l-7.98-40.69h0Z"/>
      <path class="cls-11" d="m368.99,871.67c-.68,3.97-2.59,7.52-5.32,10.25-3.46,3.46-8.24,5.61-13.5,5.61h-1.23c-5.27,0-10.04-2.15-13.5-5.61-2.7-2.7-4.6-6.2-5.3-10.12-8.6,1.62-19.8,5.7-14.67,14.42,1.95,3.31,5.67,4.52,11.07,5.56,1.57.3,2.66,1.7,2.57,3.3l-.06.94c-.1,1.56-1.29,2.8-2.85,2.95-1.26.13-2.55.2-3.86.21l.1,2.97c20.67-4.96,41.46,4.49,54.56,20.59,1.08,1.32.92,3.25-.36,4.37l-.41.36c-1.25,1.1-3.14,1.05-4.33-.14-13.02-13-33.02-17.57-50.42-11.17-8.38,3.09-15.93,8.7-21.38,16.92-5.32,8-8.69,18.52-9.02,31.63,12.86,5.38,35.88,7.56,57.63,5.77,18.92-1.56,36.4-6.05,44.28-13.92.65-8.3,2.1-39.29-10.59-56.37-2.83.52-5.89.75-9.04.81-1.58.03-2.92-1.07-3.19-2.63l-.14-.87c-.28-1.61.7-3.15,2.27-3.58,5.45-1.51,9.39-4.4,11.34-7.7.84-1.42,1.26-2.89,1.2-4.28-.06-1.26-.57-2.56-1.59-3.8-2.34-2.86-6.92-5.24-14.26-6.47h0Z"/>
      <path class="cls-9" d="m368.99,871.67c-.68,3.97-2.59,7.52-5.32,10.25-3.46,3.46-8.24,5.61-13.5,5.61h-1.23c-5.27,0-10.04-2.15-13.5-5.61-2.7-2.7-4.6-6.2-5.3-10.12-8.6,1.62-19.8,5.7-14.67,14.42,1.95,3.31,5.67,4.52,11.07,5.56,1.57.3,2.66,1.7,2.57,3.3l-.06.94c-.1,1.56-1.29,2.8-2.85,2.95-1.26.13-2.55.2-3.86.21l.1,2.97c20.67-4.96,41.46,4.49,54.56,20.59,1.08,1.32.92,3.25-.36,4.37l-.41.36c-1.07.94-2.6,1.04-3.76.31,5.4,38.55-21.78,42.49-26.21,42.88.81-.06,1.63-.12,2.45-.18,18.92-1.56,36.4-6.05,44.28-13.92.65-8.3,2.1-39.29-10.59-56.37-2.83.52-5.89.75-9.04.81-1.58.04-2.92-1.07-3.19-2.63l-.14-.87c-.28-1.61.7-3.15,2.28-3.58,5.44-1.51,9.38-4.4,11.33-7.7.84-1.42,1.26-2.89,1.2-4.28-.06-1.26-.57-2.56-1.59-3.8-2.34-2.86-6.92-5.24-14.26-6.47h0Z"/>
      <path class="cls-17" d="m368.99,871.67c-.68,3.97-2.59,7.52-5.32,10.25-3.46,3.46-8.24,5.61-13.5,5.61h-1.23c-5.27,0-10.04-2.15-13.5-5.61-2.7-2.7-4.6-6.2-5.3-10.12-8.6,1.62-19.8,5.7-14.67,14.42,1.95,3.31,5.67,4.52,11.07,5.56,1.57.3,2.66,1.7,2.57,3.3l-.06.94s15.94,4.8,41.12,2.35l-.14-.87c-.28-1.61.7-3.15,2.27-3.58,5.45-1.51,9.39-4.4,11.34-7.7.84-1.42,1.26-2.89,1.2-4.28-.06-1.26-.57-2.56-1.59-3.8-2.34-2.86-6.92-5.24-14.26-6.47h0Z"/>
      <path class="cls-10" d="m371.9,927.33c-13.02-13-33.02-17.57-50.42-11.17-8.38,3.09-15.93,8.7-21.38,16.92-5.32,8-8.69,18.52-9.02,31.63,2.23.94,4.77,1.77,7.55,2.51.77-40.81,31.45-62.82,73.27-39.89Z"/>
      <path class="cls-11" d="m119.71,397.65c-.72-.91-1.51-1.36-2.02-1.57-14.28,1.15-20.14,11.29-20.15,11.32l-1.66,2.82-3.21.4c-14.59,1.82-16.57,14.38-16.57,14.42l-.44,2.5-2.01,1.56c-4.66,3.63-9.18,8.38-11.71,15.65-2.68,7.7-3.29,18.41.08,33.88,4.86,22.25,29.96,20.13,38.56,18.72,1.64-.27,3.21.77,3.59,2.39l.33,1.37c.39,1.64-.57,3.29-2.19,3.77-3.7,1.09-10.6,2.78-18.27,2.93.44,3.84,1.4,7.92,3.28,11.05,1.76,2.93,4.57,5.05,9.02,4.97l.86-.06c8.69-.62,24.8-5.85,38.94-12.86,10.99-5.44,20.46-11.72,23.44-17.24,4.22-7.83,2.41-14.1.87-17.27-2.01,1.17-4.09,2.3-6.24,3.4-1.46.74-3.23.26-4.11-1.12l-.62-.98c-.91-1.43-.54-3.32.84-4.29,9.7-6.82,16.2-15.37,20.35-24.43,5.76-12.55,7.07-26.18,6.13-37.67-.32-3.85-.96-7.2-1.91-10.03-1.41-4.22-3.46-7.31-6.09-9.18-2.47-1.76-5.68-2.52-9.55-2.21-2.19.19-4.53.68-7.01,1.51-8.63,2.88-14.97,6.19-18.83,10.01-9.52,9.41-.56,17.57,10,15.65,2.73,2.66,4.66,6.61,5.2,10.89.33,2.64.13,5.49-.74,8.31-.88,2.83-2.42,5.57-4.77,7.97-3.11,3.18-7.59,5.77-13.77,7.1-6.52,11.34-17.67,13.79-23.41,14.28-14.88,17.06-29.28-.82-33.88-7.61-.9-1.34-.67-3.11.55-4.17l.64-.55c1.24-1.07,3.07-1.03,4.25.1,4.04,3.84,13.39,10.93,19.89,1.91l2.15-2.97,3.62.25s11.23.86,15.77-9.74l1.5-3.49,3.75-.47c4.77-.6,7.79-2.02,9.52-3.79.82-.84,1.35-1.76,1.63-2.68.29-.92.35-1.91.23-2.86-.04-.29-.09-.58-.16-.85-6.4.11-17.25-1.75-18.94-15.27-.72-5.83.39-11.07,3.27-15.77h0Z"/>
      <path class="cls-12" d="m77.48,453.38c4.04,3.84,13.39,10.93,19.89,1.91l2.15-2.97,3.62.25s11.23.86,15.77-9.74l1.5-3.49,3.75-.47c4.77-.6,7.79-2.02,9.52-3.79.82-.84,1.35-1.76,1.63-2.68.29-.92.35-1.91.23-2.86-.04-.29-.09-.58-.16-.85-6.4.11-17.25-1.75-18.94-15.27-2.08,7.22,3.48,9.09,4.77,15.41,1.28,6.32-5.87,7.21-5.87,7.21-2.68,12.55-19.86,10.7-19.86,10.7-6.9,12.86-18,6.64-18,6.64h0Z"/>
      <path class="cls-10" d="m119.71,397.65c-.72-.91-1.51-1.36-2.02-1.57-14.28,1.15-20.14,11.29-20.15,11.32l-1.66,2.82-3.21.4c-14.59,1.82-16.57,14.38-16.57,14.42l-.44,2.5s7.73-14.6,24.3-12.13c0,0,1.11-11.86,19.75-17.76h0Z"/>
      <path class="cls-11" d="m124.99,385.21c1.24.74,2.55,1.72,3.8,2.99,3.99-2.86,8.93-5.39,14.78-7.64v-42.11c0-6.8-2.2-10.71-5.09-12.2-1.01-.52-2.14-.76-3.28-.74-1.23.03-2.5.36-3.7.97-3.61,1.85-6.51,6.27-6.51,12.95v45.78h0Z"/>
      <path class="cls-10" d="m143.47,335.97c-.48-5.29-2.47-8.42-4.99-9.72-1.01-.52-2.14-.76-3.28-.74-1.23.03-2.5.36-3.7.97-3.61,1.85-6.51,6.27-6.51,12.95v17.32c1.44-9.39.97-20.6,4.35-25.31,3.07-4.26,11.03-4.81,14.13,4.53h0Z"/>
      <path class="cls-12" d="m124.99,385.21c1.24.74,2.55,1.72,3.8,2.99,3.99-2.86,8.93-5.39,14.78-7.64v-24.17c-.63,19.29-18.58,16.31-18.58,16.31v12.51Z"/>
      <path class="cls-12" d="m109.12,488.99c-25.73,15.64-47.1-10.36-47.1-10.36,4.86,22.25,29.96,20.13,38.56,18.72,1.64-.27,3.21.77,3.59,2.39l.33,1.37c.39,1.64-.57,3.29-2.19,3.77-3.7,1.09-10.6,2.78-18.27,2.93.44,3.84,1.4,7.92,3.28,11.05,1.76,2.93,4.57,5.05,9.02,4.97l.86-.06c8.69-.62,24.8-5.85,38.94-12.86,10.99-5.44,20.46-11.72,23.44-17.24,4.22-7.83,2.41-14.1.87-17.27-2.01,1.17-4.09,2.3-6.24,3.4-1.46.74-3.23.26-4.11-1.12l-.62-.98c-.91-1.43-.54-3.32.84-4.29,9.7-6.82,16.2-15.37,20.35-24.43,4.61-10.05,6.37-20.8,6.4-30.58-6.13,38.28-42.23,54.95-67.95,70.59h0Z"/>
      <path class="cls-10" d="m142.35,400.38c12.87-5.56,27.13-12.68,33.79,5.85-.33-1.79-.74-3.45-1.25-4.95-1.41-4.22-3.46-7.31-6.09-9.18-2.47-1.76-5.68-2.52-9.55-2.21-2.19.19-4.53.68-7.01,1.51-8.63,2.88-14.97,6.19-18.83,10.01-4.76,4.71-4.9,9.1-2.53,12.08,0,0-1.39-7.55,11.47-13.11h0Z"/>
      <path class="cls-9" d="m484.04,871.67c.69,3.97,2.6,7.52,5.33,10.25,3.46,3.46,8.23,5.61,13.5,5.61h1.23c5.26,0,10.04-2.15,13.5-5.61,2.7-2.7,4.6-6.2,5.3-10.12,8.6,1.62,19.8,5.7,14.67,14.42-1.95,3.31-5.68,4.52-11.07,5.56-1.58.3-2.67,1.7-2.57,3.3l.06.94c.09,1.56,1.29,2.8,2.85,2.95,1.25.13,2.55.2,3.86.21l-.1,2.97c-20.67-4.96-41.46,4.49-54.57,20.59-1.07,1.32-.91,3.25.37,4.37l.41.36c1.07.94,2.6,1.04,3.76.31-5.4,38.55,21.78,42.49,26.21,42.88-.82-.06-1.63-.12-2.45-.18-18.92-1.56-36.4-6.05-44.28-13.92-.65-8.3-2.11-39.29,10.59-56.37,2.82.52,5.89.75,9.04.81,1.58.04,2.92-1.07,3.18-2.63l.15-.87c.28-1.61-.7-3.15-2.28-3.58-5.44-1.51-9.39-4.4-11.33-7.7-.84-1.42-1.26-2.89-1.2-4.28.06-1.26.57-2.56,1.58-3.8,2.34-2.86,6.93-5.24,14.26-6.47h0Z"/>
      <path class="cls-17" d="m484.04,871.67c.69,3.97,2.6,7.52,5.33,10.25,3.46,3.46,8.23,5.61,13.5,5.61h1.23c5.26,0,10.04-2.15,13.5-5.61,2.7-2.7,4.6-6.2,5.3-10.12,8.6,1.62,19.8,5.7,14.67,14.42-1.95,3.31-5.68,4.52-11.07,5.56-1.58.3-2.67,1.7-2.57,3.3l.06.94s-15.95,4.8-41.13,2.35l.15-.87c.28-1.61-.7-3.15-2.28-3.58-5.44-1.51-9.39-4.4-11.33-7.7-.84-1.42-1.26-2.89-1.2-4.28.06-1.26.57-2.56,1.58-3.8,2.34-2.86,6.93-5.24,14.26-6.47h0Z"/>
    </g>
    <g class="cls-2">
      <g class="cls-2">
        <text class="cls-20" transform="translate(567.29 107.59)"><tspan x="0" y="0"> </tspan></text>
      </g>
    </g>
  </g>
  <g id="TEXT">
    <circle class="cls-1" cx="422.22" cy="502.11" r="422.18"/>
  </g>
</svg>